<svg width="96" height="96" viewBox="0 0 96 96" fill="none" xmlns="http://www.w3.org/2000/svg">
<path d="M73.5 0H22.5C10.0736 0 0 10.0736 0 22.5V73.5C0 85.9264 10.0736 96 22.5 96H73.5C85.9264 96 96 85.9264 96 73.5V22.5C96 10.0736 85.9264 0 73.5 0Z" fill="#330000"/>
<path d="M46.3999 57.1249H31.5199L28.4798 66.525C28.3999 66.885 28.08 67.125 27.72 67.0849H20.1998C19.7599 67.0849 19.6399 66.8449 19.7599 66.3649L32.64 29.2849C32.76 28.8851 32.88 28.4449 33.0398 27.9649C33.1999 27.1249 33.2798 26.2451 33.2798 25.365C33.24 25.1651 33.3998 24.9649 33.6 24.9251H43.9598C44.28 24.9251 44.4398 25.0451 44.4799 25.245L59.0798 66.4451C59.1998 66.885 59.0798 67.0849 58.68 67.0849H50.3198C50.04 67.125 49.7599 66.9251 49.68 66.645L46.3999 57.1249ZM33.84 49.005H43.9999C43.7599 48.165 43.44 47.1649 43.08 46.125C42.72 45.045 42.36 43.8851 42 42.6851C41.5999 41.445 41.2399 40.245 40.8398 39.0049C40.44 37.7651 40.08 36.6049 39.7598 35.445C39.4399 34.3253 39.1598 33.285 38.88 32.325H38.7998C38.4398 34.0451 37.9999 35.7653 37.44 37.485C36.84 39.405 36.24 41.4049 35.5999 43.4051C35.0833 45.293 34.4963 47.161 33.84 49.005ZM67.9999 31.9249C66.6799 31.965 65.4 31.4449 64.44 30.525C63.5201 29.5249 63.0401 28.2049 63.0799 26.8451C63.0401 25.485 63.5599 24.2051 64.5199 23.2849C65.4799 22.365 66.7601 21.885 68.0801 21.885C69.6401 21.885 70.8401 22.365 71.7199 23.2849C72.6064 24.2547 73.0799 25.5318 73.0399 26.8451C73.08 28.2049 72.6 29.5249 71.64 30.525C70.7201 31.485 69.36 32.0051 67.9999 31.9249ZM63.5201 66.645V35.8451C63.5201 35.445 63.6799 35.2849 64.0399 35.2849H71.9599C72.3199 35.2849 72.48 35.4851 72.48 35.8451V66.645C72.48 67.0849 72.3199 67.2851 71.9599 67.2851H64.1201C63.72 67.2851 63.5201 67.0451 63.5201 66.645Z" fill="#FF9A00"/>
</svg>
