<svg width="121" height="96" viewBox="0 0 121 96" fill="none" xmlns="http://www.w3.org/2000/svg">
<path d="M25.0305 0C18.1543 0 13.066 6.01848 13.2938 12.5454C13.5127 18.8157 13.2284 26.9374 11.184 33.5604C9.1334 40.2026 5.66495 44.4101 0 44.9505V51.0495C5.66495 51.5899 9.1334 55.7974 11.184 62.4401C13.2284 69.063 13.5127 77.1838 13.2938 83.4546C13.066 89.9806 18.1543 96 25.0314 96H95.4892C102.366 96 107.453 89.9815 107.225 83.4546C107.006 77.1843 107.29 69.063 109.335 62.4401C111.387 55.7979 114.846 51.5894 120.511 51.0495V44.9505C114.846 44.4101 111.387 40.2026 109.335 33.5604C107.29 26.9384 107.006 18.8162 107.225 12.5454C107.453 6.01942 102.366 0 95.4892 0H25.0295H25.0305ZM81.7025 59.094C81.7025 68.0815 74.9991 73.5318 63.8745 73.5318H44.9364C44.3947 73.5317 43.8753 73.3164 43.4924 72.9334C43.1094 72.5503 42.8943 72.0309 42.8943 71.4892V24.5108C42.8942 24.2425 42.947 23.9768 43.0496 23.729C43.1523 23.4811 43.3027 23.2559 43.4924 23.0661C43.6821 22.8764 43.9073 22.7259 44.1551 22.6233C44.4029 22.5206 44.6686 22.4677 44.9369 22.4677H63.7662C73.0422 22.4677 79.1299 27.4929 79.1299 35.2075C79.1299 40.6225 75.0344 45.4702 69.8172 46.319V46.6019C76.9202 47.381 81.7025 52.2998 81.7025 59.094ZM61.8088 28.9428H51.0114V44.195H60.1062C67.1363 44.195 71.0133 41.3639 71.0133 36.3034C71.0133 31.5616 67.679 28.9428 61.8088 28.9428ZM51.0114 50.2469V67.0548H62.2066C69.5258 67.0548 73.4038 64.1178 73.4038 58.5979C73.4038 53.077 69.418 50.2459 61.7359 50.2459H51.0114V50.2469Z" fill="#7E13F8"/>
</svg>
