<svg width="85" height="96" viewBox="0 0 85 96" fill="none" xmlns="http://www.w3.org/2000/svg">
<path d="M7.70317 86.4028L0 0H84.6475L76.9367 86.3898L42.2724 96L7.70317 86.4028Z" fill="#1572B6"/>
<path d="M42.3245 88.6547L70.3352 80.8887L76.9251 7.06421H42.3245V88.6547Z" fill="#33A9DC"/>
<path d="M42.3245 38.368H56.3471L57.3155 27.5166H42.3245V16.9196H68.8971L68.6427 19.7628L66.0377 48.965H42.3245V38.368Z" fill="white"/>
<path d="M42.3872 65.8892L42.3405 65.903L30.539 62.7164L29.7843 54.2647H19.1482L20.6323 70.9038L42.3389 76.9283L42.3872 76.9145V65.8892Z" fill="#EBEBEB"/>
<path d="M55.4461 48.5168L54.1697 62.708L42.3506 65.8983V76.9237L64.0748 70.903L64.2342 69.1125L66.0776 48.5168H55.4461Z" fill="white"/>
<path d="M42.3605 16.9196V27.5166H16.764L16.5517 25.1353L16.069 19.7628L15.8154 16.9196H42.3605ZM42.3245 38.3695V48.9665H30.6717L30.4594 46.5853L29.976 41.2128L29.7231 38.3695H42.3245Z" fill="#EBEBEB"/>
</svg>
