<svg width="97" height="96" viewBox="0 0 97 96" fill="none" xmlns="http://www.w3.org/2000/svg">
<path d="M94.1902 43.7241L52.2749 1.81035C49.8626 -0.603451 45.9476 -0.603451 43.5315 1.81035L34.8284 10.5149L45.8693 21.5558C48.4359 20.6896 51.3775 21.2706 53.4225 23.3156C55.4781 25.3734 56.0545 28.3401 55.167 30.9152L65.8078 41.5567C68.3821 40.6692 71.3534 41.2426 73.4082 43.3021C76.2829 46.1744 76.2829 50.8309 73.4082 53.7048C72.7251 54.3883 71.914 54.9305 71.0212 55.3004C70.1285 55.6703 69.1716 55.8607 68.2053 55.8607C67.239 55.8607 66.2821 55.6703 65.3894 55.3004C64.4966 54.9305 63.6855 54.3883 63.0024 53.7048C61.976 52.6778 61.2764 51.3702 60.9915 49.9464C60.7067 48.5227 60.8493 47.0465 61.4016 45.7037L51.4786 35.7808L51.4771 61.8969C52.1971 62.2514 52.8544 62.721 53.4232 63.287C56.2964 66.1594 56.2964 70.8144 53.4232 73.6929C50.5493 76.5652 45.8913 76.5652 43.0205 73.6929C40.1473 70.8152 40.1473 66.1602 43.0205 63.287C43.7088 62.5976 44.5275 62.0521 45.4289 61.6824V35.3245C44.5268 34.9558 43.7078 34.4099 43.0205 33.7191C40.8439 31.5441 40.3199 28.35 41.4363 25.6761L30.5514 14.7912L1.81089 43.5302C0.651375 44.6901 0 46.263 0 47.903C0 49.5431 0.651375 51.116 1.81089 52.2759L43.7269 94.1896C46.1408 96.6034 50.0542 96.6034 52.4718 94.1896L94.1909 52.4706C95.3502 51.3103 96.0013 49.7373 96.0012 48.0972C96.0011 46.4571 95.3497 44.8841 94.1902 43.7241Z" fill="#F34F29"/>
</svg>
