<svg width="99" height="96" viewBox="0 0 99 96" fill="none" xmlns="http://www.w3.org/2000/svg">
<path d="M49.1917 0C42.7318 0 36.3351 1.27238 30.3668 3.74449C24.3986 6.21661 18.9758 9.84004 14.4079 14.4079C5.18268 23.6331 0 36.1452 0 49.1917C0 70.9344 14.118 89.3813 33.6471 95.9238C36.1067 96.3173 36.8938 94.7924 36.8938 93.4642V85.1508C23.2677 88.1023 20.3654 78.5591 20.3654 78.5591C18.1025 72.8529 14.9051 71.328 14.9051 71.328C10.4286 68.2781 15.2494 68.3764 15.2494 68.3764C20.1686 68.7208 22.7758 73.4432 22.7758 73.4432C27.0554 80.9203 34.2866 78.7067 37.0905 77.5261C37.5333 74.3287 38.8122 72.1642 40.1896 70.9344C29.2691 69.7046 17.8074 65.4741 17.8074 46.7321C17.8074 41.2718 19.6767 36.8938 22.8741 33.4012C22.3822 32.1714 20.6605 27.0554 23.3661 20.4146C23.3661 20.4146 27.4982 19.0864 36.8938 25.4321C40.7799 24.3499 45.0104 23.8088 49.1917 23.8088C53.373 23.8088 57.6035 24.3499 61.4896 25.4321C70.8852 19.0864 75.0173 20.4146 75.0173 20.4146C77.7229 27.0554 76.0012 32.1714 75.5093 33.4012C78.7067 36.8938 80.576 41.2718 80.576 46.7321C80.576 65.5233 69.0651 69.6554 58.0954 70.8852C59.8663 72.4102 61.4896 75.4109 61.4896 79.9857V93.4642C61.4896 94.7924 62.2767 96.3665 64.7855 95.9238C84.3146 89.3321 98.3834 70.9344 98.3834 49.1917C98.3834 42.7318 97.111 36.3351 94.6389 30.3668C92.1668 24.3986 88.5433 18.9758 83.9755 14.4079C79.4076 9.84004 73.9848 6.21661 68.0165 3.74449C62.0483 1.27238 55.6516 0 49.1917 0Z" fill="black"/>
</svg>
