<svg width="85" height="96" viewBox="0 0 85 96" fill="none" xmlns="http://www.w3.org/2000/svg">
<path d="M7.704 86.4034L0 0H84.6514L76.9371 86.3897L42.2743 96L7.704 86.4034Z" fill="#E44F26"/>
<path d="M42.3257 88.656L70.3371 80.8903L76.9268 7.06628H42.3257V88.656Z" fill="#F1662A"/>
<path d="M42.3256 39.1097H28.3027L27.3359 28.2583H42.3256V17.6606H15.7542L16.0079 20.5063L18.6102 49.7074H42.3256V39.1097ZM42.3256 66.6309L42.2776 66.6446L30.4764 63.4594L29.7222 55.008H19.0833L20.5679 71.6434L42.2776 77.6709L42.3256 77.6572V66.6309Z" fill="#EBEBEB"/>
<path d="M42.2878 39.1097V49.7074H55.337L54.1096 63.4526L42.2878 66.6412V77.6674L64.0147 71.6434L64.1724 69.8537L66.6616 41.9554L66.9221 39.1097H42.2878ZM42.2878 17.6606V28.2583H67.8856L68.0981 25.8789L68.5816 20.5063L68.8353 17.6606H42.2878Z" fill="white"/>
</svg>
