<svg width="100" height="96" viewBox="0 0 100 96" fill="none" xmlns="http://www.w3.org/2000/svg">
<path d="M6.32839 22.5462C-2.49441 35.2264 -1.39606 51.7256 5.34364 65.2002C5.50363 65.5234 5.67162 65.841 5.83721 66.1586L6.1524 66.7658L6.34919 67.1153L6.70037 67.7441C6.90996 68.1129 7.12435 68.4801 7.34354 68.8473L7.71073 69.452C7.95392 69.8448 8.20271 70.2328 8.45709 70.62L8.77548 71.1112C9.12666 71.6351 9.48585 72.1583 9.85703 72.6719L9.88823 72.7119L10.0706 72.9583C10.3914 73.4007 10.7218 73.8374 11.0562 74.2694L11.4274 74.7414C11.7257 75.1166 12.0289 75.4894 12.3377 75.8605L12.6857 76.2765C13.1009 76.7664 13.5238 77.2497 13.9544 77.7261L13.9808 77.7525L14.0296 77.8069C14.4529 78.2661 14.8828 78.7192 15.3192 79.166L15.7328 79.5828C16.0711 79.9236 16.4151 80.2587 16.7623 80.5923L17.1839 80.9923C17.6479 81.4299 18.1167 81.8587 18.595 82.2779L18.6174 82.2955L18.863 82.505C19.2846 82.8698 19.7134 83.2322 20.1454 83.5874L20.6765 84.0106C21.0293 84.2938 21.3861 84.5722 21.7453 84.8457L22.3165 85.2801C22.7132 85.5721 23.1124 85.8593 23.5156 86.1401L23.9524 86.4497L24.0724 86.5353C24.4548 86.7984 24.8459 87.052 25.2371 87.3056L25.7411 87.6416C26.3411 88.0208 26.9491 88.396 27.5642 88.7584L28.0682 89.0423C28.5202 89.3031 28.9754 89.5591 29.4361 89.8095C29.6857 89.9439 29.9417 90.0711 30.1929 90.1999C30.5185 90.3703 30.8417 90.5431 31.1729 90.7087L31.3993 90.8183L31.8 91.0119C32.3128 91.2566 32.8296 91.4974 33.352 91.7294L33.6799 91.8766C34.2787 92.1386 34.8823 92.3895 35.4903 92.6294L35.931 92.803C36.4942 93.0198 37.0654 93.2342 37.639 93.4357L37.8534 93.5101C38.4829 93.7301 39.1181 93.9341 39.7581 94.1333L40.218 94.2709C40.8692 94.4669 41.5132 94.7013 42.1844 94.8253C84.8536 102.607 97.2483 69.1841 97.2483 69.1841C86.8383 82.7458 68.3608 86.3233 50.8536 82.3403C50.1904 82.1907 49.5472 81.9835 48.9001 81.7923L48.4129 81.6443C47.7823 81.451 47.155 81.247 46.5314 81.0323L46.273 80.9387C45.7168 80.7421 45.1637 80.5371 44.6138 80.3235L44.1483 80.1404C43.5467 79.9028 42.9483 79.6548 42.3572 79.3956L41.9996 79.2372C41.4932 79.0085 40.9895 78.7741 40.4884 78.534L40.0517 78.3244C39.6589 78.1332 39.2701 77.9301 38.8829 77.7301C38.6237 77.5933 38.3597 77.4645 38.1029 77.3221C37.6316 77.0682 37.1646 76.8064 36.7022 76.5365L36.2294 76.2725C35.6154 75.91 35.0073 75.5375 34.4055 75.155L33.9135 74.827C33.4761 74.5464 33.0432 74.2587 32.6152 73.9638L32.1976 73.6702C31.7854 73.3789 31.3764 73.0831 30.9705 72.7831L30.4273 72.3719C30.0543 72.0884 29.6852 71.7999 29.3201 71.5063L28.8266 71.1104C28.3616 70.7292 27.9018 70.3417 27.4474 69.948L27.2962 69.8208C26.8066 69.3888 26.3234 68.9495 25.8467 68.5033L25.4379 68.1105C25.0851 67.7745 24.738 67.4361 24.3964 67.0889L23.9884 66.6818C23.5549 66.2382 23.1287 65.7875 22.71 65.3298L22.6468 65.2626C22.2057 64.7788 21.7734 64.287 21.3501 63.7875L21.0109 63.3843C20.6947 63.0039 20.3835 62.6194 20.0774 62.2308L19.7358 61.8052C19.3698 61.332 19.0106 60.8535 18.6582 60.37C8.93867 47.1115 5.44603 28.8259 13.2145 13.809M33.7167 11.8619C27.3354 21.0438 27.6826 33.3361 32.66 43.0468C33.493 44.6793 34.4359 46.2532 35.4823 47.7578C36.4382 49.1282 37.4982 50.7585 38.7669 51.8592C39.2309 52.3674 39.7083 52.863 40.1989 53.3456L40.5764 53.7176C41.0529 54.182 41.5405 54.6349 42.0388 55.0759L42.098 55.1271L42.1124 55.1415C42.6698 55.6269 43.2393 56.0982 43.8203 56.555L44.2083 56.8574C44.7925 57.3075 45.3881 57.7425 45.9946 58.1622L46.0466 58.2013C46.3154 58.3869 46.589 58.5597 46.8617 58.7389L47.2481 58.9941C47.6833 59.2733 48.1241 59.5453 48.5721 59.8061L48.7601 59.9149C49.1464 60.1373 49.5376 60.3564 49.9304 60.5692L50.3472 60.786C50.6184 60.9276 50.8896 61.0724 51.1656 61.21L51.2896 61.266C51.8519 61.5428 52.4191 61.81 52.9983 62.062L53.3759 62.2172C53.839 62.414 54.307 62.6059 54.7758 62.7851L55.3758 63.0051C55.8021 63.1635 56.2301 63.3075 56.6613 63.4523L57.2429 63.6387C57.8565 63.8291 58.4628 64.0699 59.102 64.1763C92.0469 69.6344 99.653 44.2684 99.653 44.2684C92.7973 54.1423 79.5195 58.8541 65.3513 55.1759C64.725 55.0112 64.1027 54.8314 63.485 54.6367L62.9242 54.4551C62.4865 54.3135 62.0515 54.1637 61.6195 54.0055L61.0307 53.7864C60.5593 53.6054 60.091 53.4166 59.626 53.22L59.2476 53.06C58.6683 52.8078 58.0953 52.5414 57.5293 52.2608C57.2389 52.1192 56.9533 51.9696 56.6669 51.8224L56.1693 51.5665C55.8023 51.3675 55.4388 51.1622 55.079 50.9505L54.8182 50.8025C54.3726 50.5426 53.9322 50.2738 53.4974 49.9961L53.0991 49.7305C52.8121 49.545 52.527 49.3564 52.2439 49.165C51.64 48.7452 51.0462 48.3109 50.4632 47.8626L50.0624 47.5466C43.8611 42.6509 38.9445 35.9584 36.6078 28.3707C34.1583 20.5023 34.6863 11.6691 38.9301 4.4998M56.7517 3.87982C52.9903 9.41557 52.6207 16.2905 55.231 22.4038C57.9836 28.8939 63.6234 33.9841 70.2063 36.3991C70.4775 36.4991 70.7495 36.5887 71.0239 36.6823L71.3846 36.7967C71.7726 36.9183 72.1574 37.0599 72.5582 37.1359C90.7494 40.6509 95.6835 27.8011 96.9963 25.9092C92.6749 32.1321 85.4112 33.6257 76.4988 31.4626C75.7948 31.2922 75.0213 31.0378 74.3429 30.797C73.4714 30.4874 72.6167 30.1325 71.7822 29.7338C70.1989 28.9715 68.695 28.054 67.2928 26.9948C59.318 20.943 54.3638 9.40037 59.5676 0" fill="#0868AC"/>
</svg>
