<svg width="93" height="96" viewBox="0 0 93 96" fill="none" xmlns="http://www.w3.org/2000/svg">
<path d="M15.8804 16.8317C18.8683 19.2568 19.9836 19.0726 25.5908 18.6991L78.4506 15.5271C79.5761 15.5271 78.6399 14.4016 78.2664 14.2174L69.4872 7.87339C67.804 6.56878 65.5631 5.06975 61.2707 5.44323L10.0839 9.178C8.22161 9.36218 7.84813 10.2984 8.58997 11.0454L15.8804 16.8317ZM19.0524 29.1513V84.7636C19.0524 87.7565 20.5463 88.8718 23.9127 88.6876L82.0012 85.3263C85.3625 85.1422 85.736 83.0855 85.736 80.6604V25.4166C85.736 22.9915 84.8048 21.6818 82.7481 21.8711L22.0403 25.4166C19.7994 25.6007 19.0524 26.7212 19.0524 29.1513ZM76.4042 32.134C76.7725 33.8121 76.4042 35.4953 74.7158 35.6846L71.9173 36.2423V77.2992C69.4872 78.6089 67.2463 79.3558 65.3789 79.3558C62.3911 79.3558 61.6441 78.4196 59.4033 75.6211L41.0927 46.8787V74.6899L46.8893 75.9945C46.8893 75.9945 46.8893 79.3558 42.2131 79.3558L29.3256 80.1028C28.9521 79.3558 29.3256 77.4936 30.6353 77.115L33.9966 76.1838V39.4143L29.3256 39.0408C28.9521 37.3576 29.8884 34.9326 32.5027 34.7433L46.3265 33.8172L65.3789 62.928V37.1785L60.5186 36.6209C60.1502 34.5642 61.6441 33.0754 63.5115 32.8861L76.4042 32.1392V32.134ZM5.78633 4.13862L59.0247 0.219671C65.558 -0.343102 67.2412 0.0354904 71.3545 3.01819L88.3452 14.9643C91.1488 17.0159 92.0851 17.5736 92.0851 19.8144V85.3263C92.0851 89.4346 90.5912 91.8596 85.3625 92.2331L23.5342 95.9679C19.6101 96.1521 17.7427 95.5944 15.686 92.9801L3.17199 76.7415C0.931134 73.7537 0 71.5179 0 68.8985V10.6719C0 7.31061 1.48879 4.5121 5.78633 4.13862Z" fill="black"/>
</svg>
