<svg width="96" height="96" viewBox="0 0 96 96" fill="none" xmlns="http://www.w3.org/2000/svg">
<path d="M73.5 0H22.5C10.0736 0 0 10.0736 0 22.5V73.5C0 85.9264 10.0736 96 22.5 96H73.5C85.9264 96 96 85.9264 96 73.5V22.5C96 10.0736 85.9264 0 73.5 0Z" fill="#001E36"/>
<path d="M21.6001 66.765V25.605C21.6001 25.3249 21.7201 25.1651 22.0002 25.1651C22.6801 25.1651 23.3202 25.1651 24.2401 25.125C25.2001 25.0849 26.2002 25.0849 27.2802 25.0451C28.3602 25.005 29.5201 25.005 30.7602 24.9649C32 24.9251 33.2 24.9251 34.4 24.9251C37.6801 24.9251 40.4 25.3249 42.6402 26.1649C44.6482 26.8468 46.4791 27.9673 48.0001 29.445C49.289 30.7382 50.2849 32.2933 50.9202 34.005C51.5202 35.685 51.8401 37.4051 51.8401 39.2051C51.8401 42.645 51.0402 45.4849 49.4401 47.7251C47.84 49.965 45.6001 51.645 43.0002 52.605C40.28 53.6051 37.28 53.9651 34.0002 53.9651C33.0402 53.9651 32.4001 53.9651 32 53.925C31.6002 53.8849 31.04 53.8849 30.2802 53.8849V66.7249C30.32 67.005 30.1201 67.245 29.84 67.2851H22.0801C21.7602 67.2851 21.6001 67.125 21.6001 66.765ZM30.32 32.8849V46.3249C30.8802 46.365 31.4 46.4051 31.88 46.4051H34.0002C35.5602 46.4051 37.1202 46.1651 38.6 45.6851C39.8802 45.3251 41 44.565 41.8801 43.5649C42.7201 42.5651 43.1202 41.205 43.1202 39.4451C43.1578 38.195 42.8386 36.9601 42.2 35.8849C41.5201 34.845 40.5601 34.0451 39.4002 33.6049C37.9201 33.0049 36.32 32.7649 34.6801 32.805C33.6402 32.805 32.72 32.805 31.9602 32.8451C31.16 32.805 30.6001 32.8451 30.32 32.8849ZM76.8001 43.8851C75.6001 43.245 74.3202 42.8051 72.9601 42.525C71.48 42.2051 70.0002 42.0049 68.48 42.0049C67.6801 41.9651 66.8401 42.0851 66.08 42.285C65.5602 42.405 65.12 42.6851 64.8402 43.0849C64.64 43.4051 64.52 43.8049 64.52 44.1649C64.52 44.5249 64.6801 44.8849 64.9201 45.2051C65.2801 45.645 65.7601 46.005 66.2802 46.2851C67.2076 46.7654 68.1551 47.2058 69.1201 47.6051C71.2801 48.3251 73.3602 49.3249 75.2802 50.5249C76.6002 51.3649 77.6802 52.485 78.44 53.8451C79.0801 55.125 79.4 56.5249 79.3602 57.9649C79.4 59.8451 78.8401 61.725 77.8002 63.285C76.6845 64.8817 75.1277 66.1188 73.3201 66.8449C71.36 67.6849 68.96 68.1251 66.08 68.1251C64.2402 68.1251 62.4402 67.965 60.6402 67.605C59.2295 67.3613 57.8574 66.9309 56.5602 66.3251C56.2801 66.165 56.0802 65.8849 56.12 65.565V58.605C56.12 58.485 56.1601 58.3249 56.2801 58.245C56.4001 58.1651 56.5201 58.2049 56.6401 58.2851C58.2001 59.205 59.84 59.8451 61.6002 60.2449C63.1201 60.645 64.7202 60.8449 66.32 60.8449C67.8402 60.8449 68.9202 60.645 69.6402 60.285C70.28 60.0049 70.7202 59.325 70.7202 58.605C70.7202 58.0451 70.4 57.525 69.7602 57.0049C69.1201 56.4851 67.8001 55.8851 65.84 55.125C63.8294 54.4165 61.9199 53.4483 60.1602 52.245C58.9068 51.3516 57.8682 50.19 57.1201 48.8449C56.48 47.565 56.1601 46.1651 56.2002 44.7649C56.2002 43.0451 56.6802 41.4049 57.56 39.9251C58.5601 38.325 60.0402 37.0451 61.76 36.2449C63.6402 35.2849 66.0001 34.845 68.84 34.845C70.4802 34.845 72.1602 34.965 73.8001 35.205C75.0001 35.3651 76.16 35.685 77.24 36.1249C77.4001 36.165 77.5602 36.3251 77.6401 36.4849C77.6802 36.645 77.72 36.8051 77.72 36.9649V43.485C77.72 43.6451 77.6401 43.8049 77.5201 43.8851C77.1601 43.965 76.9602 43.965 76.8001 43.8851Z" fill="#31A8FF"/>
</svg>
