<svg width="108" height="96" viewBox="0 0 108 96" fill="none" xmlns="http://www.w3.org/2000/svg">
<path d="M88.6244 31.1155C87.4773 30.7216 86.3204 30.3566 85.1549 30.0209C85.3507 29.2201 85.531 28.429 85.6909 27.6518C88.3175 14.8888 86.6004 4.60674 80.7356 1.22139C75.1124 -2.02404 65.9162 1.36005 56.6286 9.45128C55.7133 10.2501 54.8183 11.072 53.9444 11.9161C53.3594 11.3548 52.7641 10.8044 52.1587 10.2652C42.4248 1.61379 32.6682 -2.03247 26.8097 1.36258C21.1916 4.61812 19.528 14.284 21.8926 26.3797C22.1279 27.5777 22.3935 28.7695 22.6893 29.9539C21.3082 30.3468 19.9756 30.7649 18.7002 31.2099C7.288 35.193 0 41.4347 0 47.9091C0 54.596 7.824 61.303 19.7103 65.3699C20.674 65.6983 21.6456 66.0026 22.6244 66.2824C22.3065 67.5581 22.0243 68.8425 21.7781 70.134C19.5238 82.0198 21.2842 91.4573 26.8872 94.6921C32.6741 98.0328 42.3869 94.5994 51.8442 86.3236C52.6111 85.6508 53.3611 84.9589 54.0935 84.2486C55.0398 85.1626 56.0114 86.05 57.0072 86.9099C66.1684 94.8009 75.216 97.9873 80.8135 94.7436C86.5949 91.3932 88.4741 81.2548 86.0345 68.9201C85.8423 67.9538 85.6268 66.9922 85.3882 66.0363C86.0703 65.834 86.7398 65.6258 87.3924 65.4091C99.7495 61.3111 107.789 54.6853 107.789 47.9091C107.789 41.4111 100.266 35.1272 88.6244 31.1155ZM85.9444 61.0341C85.3549 61.2293 84.7503 61.4177 84.1339 61.601C82.7697 57.2779 80.9288 52.6812 78.6758 47.9315C80.8257 43.2952 82.5958 38.757 83.9217 34.4621C85.0244 34.7816 86.0943 35.1184 87.1259 35.4737C97.1006 38.9113 103.185 43.9931 103.185 47.9091C103.185 52.0801 96.6139 57.4949 85.9444 61.0341ZM81.5175 69.8153C82.5962 75.2693 82.7499 80.2007 82.0354 84.056C81.3937 87.5202 80.1027 89.8295 78.5061 90.7546C75.1095 92.723 67.845 90.1646 60.0105 83.4158C59.0844 82.6164 58.1806 81.7913 57.3002 80.9417C60.3377 77.6166 63.3731 73.7511 66.3356 69.4579C71.5465 68.9951 76.4695 68.2381 80.9339 67.2051C81.149 68.0704 81.3435 68.9408 81.5175 69.8153ZM36.7478 90.4145C33.4291 91.5875 30.7857 91.6212 29.1878 90.699C25.7878 88.7362 24.3743 81.1583 26.3023 70.9938C26.5315 69.7927 26.7939 68.5982 27.0893 67.4116C31.5044 68.3894 36.3916 69.0925 41.6147 69.5165C44.5975 73.7174 47.7204 77.5786 50.8678 80.9598C50.1989 81.6077 49.5142 82.2389 48.8143 82.8531C44.632 86.5124 40.4413 89.1087 36.7478 90.4145ZM21.2 61.0084C15.944 59.21 11.6034 56.8728 8.62821 54.3224C5.95453 52.0308 4.60505 49.7552 4.60505 47.9091C4.60505 43.9801 10.4564 38.9686 20.216 35.5626C21.4004 35.1496 22.64 34.7597 23.9263 34.3938C25.2754 38.7857 27.0446 43.3778 29.1798 48.0212C27.0168 52.7334 25.2223 57.3988 23.8602 61.8425C22.9668 61.5864 22.0798 61.3082 21.2 61.0084ZM26.4118 25.4942C24.3861 15.1312 25.7314 7.31393 29.1171 5.35193C32.7229 3.26221 40.6968 6.24168 49.1015 13.7121C49.6495 14.2003 50.1887 14.6984 50.7187 15.2062C47.5869 18.5726 44.4926 22.4052 41.5364 26.5812C36.4669 27.0516 31.6143 27.8069 27.1528 28.8189C26.878 27.7172 26.6309 26.6083 26.4118 25.4942ZM72.9074 36.9872C71.8536 35.1651 70.7607 33.366 69.6295 31.591C73.0686 32.0264 76.3638 32.6042 79.4581 33.3106C78.5293 36.2914 77.3714 39.4074 76.0084 42.6022C75.0122 40.7101 73.9783 38.838 72.9074 36.9872ZM53.9465 18.5005C56.0703 20.8039 58.1975 23.3754 60.2897 26.1656C56.0455 25.965 51.7942 25.9641 47.5499 26.1631C49.6442 23.3986 51.7895 20.8305 53.9465 18.5005ZM34.864 37.0188C33.8065 38.8548 32.7919 40.7151 31.8211 42.5984C30.4804 39.415 29.3331 36.2846 28.3962 33.2617C31.4716 32.573 34.7512 32.0099 38.1684 31.5825C37.0246 33.3684 35.9228 35.1812 34.864 37.0188ZM38.2665 64.5636C34.736 64.1691 31.4072 63.6351 28.3326 62.965C29.2842 59.8881 30.4568 56.6912 31.8265 53.4394C32.8012 55.3241 33.82 57.1856 34.8821 59.0224C35.9743 60.9106 37.1053 62.7601 38.2665 64.5636ZM54.0737 77.6423C51.8909 75.2853 49.7141 72.6776 47.5882 69.8731C49.6522 69.954 51.7562 69.9953 53.8947 69.9953C56.0918 69.9953 58.2636 69.946 60.4013 69.8507C58.3023 72.7059 56.1832 75.3174 54.0737 77.6423ZM76.0518 53.2734C77.4926 56.5609 78.7069 59.741 79.6712 62.7652C76.5461 63.4792 73.1718 64.0541 69.6164 64.481C70.7557 62.6731 71.8589 60.8427 72.9255 58.9908C74.0098 57.1084 75.0522 55.2021 76.0518 53.2734ZM68.9368 56.6878C67.3041 59.5271 65.5795 62.3124 63.7659 65.0395C60.4807 65.2724 57.1882 65.3881 53.8947 65.3864C50.5402 65.3864 47.2775 65.2818 44.1356 65.0779C42.2746 62.3571 40.5172 59.5668 38.8669 56.7131C37.2245 53.8744 35.6908 50.9744 34.2682 48.0191C35.6871 45.0632 37.2166 42.1618 38.8535 39.321L38.8531 39.3214C40.4893 36.4799 42.2327 33.7015 44.0796 30.9925C47.2851 30.7497 50.5722 30.6232 53.8943 30.6232C57.2316 30.6232 60.5234 30.751 63.728 30.9954C65.5562 33.7004 67.2885 36.4692 68.9217 39.2965C70.564 42.1311 72.1137 45.0184 73.5684 47.9538C72.1286 50.9193 70.5838 53.8324 68.9368 56.6878ZM78.4358 5.21452C82.0451 7.29834 83.4488 15.7015 81.1811 26.7211C81.0362 27.4242 80.8737 28.1403 80.6968 28.8665C76.2244 27.833 71.3684 27.0647 66.2842 26.5871C63.3225 22.3651 60.2535 18.5267 57.1726 15.2037C57.9801 14.4246 58.8067 13.6657 59.6518 12.9277C67.6097 5.99553 75.0472 3.25842 78.4358 5.21452ZM53.8947 38.274C59.2105 38.274 63.52 42.5879 63.52 47.9091C63.52 53.2304 59.2105 57.5443 53.8947 57.5443C48.5789 57.5443 44.2695 53.2304 44.2695 47.9091C44.2695 42.5879 48.5789 38.274 53.8947 38.274Z" fill="#00D8FF"/>
</svg>
