<svg width="96" height="96" viewBox="0 0 96 96" fill="none" xmlns="http://www.w3.org/2000/svg">
<path d="M73.5 0H22.5C10.0736 0 0 10.0736 0 22.5V73.5C0 85.9264 10.0736 96 22.5 96H73.5C85.9264 96 96 85.9264 96 73.5V22.5C96 10.0736 85.9264 0 73.5 0Z" fill="#CD6799"/>
<mask id="mask0_111_28" style="mask-type:luminance" maskUnits="userSpaceOnUse" x="10" y="19" width="76" height="58">
<path d="M10.5 19.875H85.5V76.0909H10.5V19.875Z" fill="white"/>
</mask>
<g mask="url(#mask0_111_28)">
<path d="M75.0402 52.1861C72.4249 52.1996 70.1524 52.8296 68.2493 53.7604C67.551 52.3778 66.8528 51.1455 66.7294 50.2418C66.5926 49.1876 66.4283 48.5441 66.5925 47.2845C66.7568 46.0249 67.4963 44.2316 67.4824 44.0948C67.4689 43.9575 67.3182 43.3144 65.8122 43.3005C64.3062 43.287 63.0057 43.5881 62.8549 43.9853C62.7042 44.382 62.4169 45.2858 62.2253 46.2169C61.9651 47.586 59.2129 52.4738 57.6387 55.0339C57.132 54.0345 56.694 53.1581 56.598 52.4599C56.4612 51.4058 56.2969 50.7623 56.4612 49.5026C56.6254 48.243 57.3649 46.4494 57.351 46.3125C57.3375 46.1756 57.1868 45.5321 55.6808 45.5186C54.1748 45.5048 52.8739 45.8059 52.7235 46.203C52.5728 46.6001 52.4085 47.5313 52.0935 48.4346C51.7789 49.3384 48.1234 57.4984 47.1649 59.6066C46.7777 60.4598 46.3714 61.3043 45.9465 62.1394C45.9465 62.1394 45.9327 62.1806 45.8918 62.2489C45.7582 62.5108 45.6211 62.7709 45.4808 63.0293V63.0431C45.2757 63.4129 45.0563 63.7549 44.9468 63.7549C44.8647 63.7549 44.7143 62.7694 44.9742 61.4276C45.522 58.5934 46.8225 54.1849 46.809 54.0345C46.809 53.9524 47.0554 53.1855 45.96 52.7884C44.892 52.3913 44.5088 53.0486 44.4128 53.0486C44.3172 53.0486 44.2485 53.2815 44.2485 53.2815C44.2485 53.2815 45.4399 48.3251 41.976 48.3251C39.8127 48.3251 36.828 50.6936 35.3498 52.8296C33.6688 53.7443 31.9891 54.6616 30.3109 55.5814C29.5035 56.0333 28.6684 56.4851 27.8877 56.9096C27.8329 56.8549 27.7782 56.7863 27.7234 56.7315C23.5339 52.2544 15.7849 49.092 16.1134 43.0815C16.2368 40.8908 16.9898 35.1405 30.9957 28.158C42.5235 22.4764 51.6968 24.0506 53.2849 27.5419C55.5574 32.5256 48.3698 41.7806 36.4587 43.1224C31.9129 43.629 29.5309 41.8766 28.9287 41.2196C28.2987 40.5349 28.2027 40.494 27.9698 40.6309C27.5865 40.836 27.8329 41.4521 27.9698 41.808C28.326 42.7391 29.7908 44.382 32.2688 45.1898C34.4595 45.9019 39.7853 46.299 46.2338 43.8071C53.4492 41.0141 59.0899 33.2509 57.4332 26.748C55.7768 20.1488 44.8238 17.9719 34.4595 21.6548C28.2983 23.8455 21.6173 27.2955 16.8117 31.7861C11.1023 37.1261 10.1989 41.7671 10.5687 43.7111C11.8965 50.6115 21.4118 55.1021 25.218 58.4291C25.0264 58.5386 24.8483 58.6346 24.6979 58.7168C22.7948 59.6614 15.5385 63.4538 13.731 67.4655C11.6775 72.0109 14.0599 75.2693 15.6342 75.7073C20.5219 77.0629 25.5465 74.6258 28.2439 70.6005C30.9409 66.5753 30.6124 61.3455 29.3663 58.9496C29.3529 58.9193 29.3344 58.8915 29.3115 58.8675C29.8047 58.5799 30.3109 58.2788 30.804 57.9911C31.7101 57.4557 32.6276 56.9399 33.5558 56.4439C33.0904 57.7174 32.748 59.2369 32.5838 61.4276C32.3787 64.0016 33.4328 67.3421 34.8154 68.6565C35.4315 69.2314 36.1572 69.2453 36.6229 69.2453C38.2384 69.2453 38.964 67.9035 39.7718 66.3154C40.7573 64.371 41.6475 62.112 41.6475 62.112C41.6475 62.112 40.5383 68.2185 43.5503 68.2185C44.6457 68.2185 45.7545 66.7946 46.2477 66.069V66.0825C46.2477 66.0825 46.275 66.0416 46.3298 65.9456C46.4393 65.7675 46.5075 65.658 46.5075 65.658V65.6306C46.9459 64.8641 47.9314 63.1253 49.3965 60.2363C51.2858 56.5125 53.1068 51.8576 53.1068 51.8576C53.1068 51.8576 53.271 52.9939 53.8324 54.8831C54.1609 55.9924 54.8457 57.2108 55.3932 58.3883C54.9552 59.0044 54.6814 59.3464 54.6814 59.3464L54.6949 59.3603C54.339 59.8256 53.9558 60.3323 53.5313 60.825C52.0388 62.6051 50.259 64.6451 50.0127 65.2339C49.725 65.9321 49.7937 66.4384 50.3412 66.8494C50.7383 67.1505 51.45 67.1914 52.1757 67.1505C53.5174 67.0545 54.4624 66.726 54.9278 66.5205C55.6534 66.2606 56.5024 65.8635 57.2963 65.2748C58.7614 64.1933 59.6513 62.646 59.5692 60.606C59.5279 59.4833 59.1582 58.3609 58.7067 57.3064C58.8435 57.1148 58.9665 56.9231 59.1034 56.7315C61.4175 53.3498 63.2108 49.6395 63.2108 49.6395C63.2108 49.6395 63.375 50.7758 63.9364 52.6654C64.2102 53.6235 64.7715 54.6641 65.2647 55.6774C63.0878 57.4436 61.7461 59.4971 61.2668 60.8389C60.4043 63.3308 61.0752 64.4531 62.3483 64.7134C62.9235 64.8368 63.7448 64.563 64.3474 64.3028C65.1139 64.0564 66.0177 63.6319 66.8802 63.0019C68.3449 61.9204 69.7553 60.4144 69.6732 58.3744C69.6319 57.4436 69.3856 56.526 69.0432 55.6361C70.8916 54.8696 73.2739 54.4451 76.3133 54.801C82.8304 55.5679 84.1174 59.634 83.8707 61.3455C83.6243 63.0566 82.2552 63.9878 81.8033 64.2754C81.3518 64.563 81.201 64.6586 81.2423 64.8641C81.297 65.1653 81.516 65.1514 81.8993 65.0966C82.4333 65.001 85.3219 63.714 85.4453 60.5651C85.6508 56.5399 81.8172 52.1449 75.0402 52.1861ZM24.7662 69.1358C22.6032 71.4904 19.5912 72.3806 18.2903 71.6276C16.8938 70.8195 17.4413 67.3421 20.0978 64.8503C21.7129 63.3308 23.7942 61.9204 25.1768 61.0579C25.4918 60.8663 25.9572 60.5925 26.5185 60.2501C26.6145 60.1954 26.6693 60.168 26.6693 60.168L26.9978 59.9625C27.9698 63.5224 27.0387 66.6578 24.7662 69.1358ZM40.5109 58.4291C39.7579 60.264 38.1837 64.9598 37.2252 64.6999C36.4039 64.4805 35.8973 60.921 37.0609 57.4024C37.6497 55.6361 38.8954 53.5279 39.621 52.7063C40.7985 51.3919 42.099 50.9539 42.414 51.4879C42.8112 52.1861 40.9767 57.279 40.5109 58.4291ZM53.5039 64.6451C53.1889 64.8094 52.8878 64.9189 52.7509 64.8368C52.6549 64.782 52.8878 64.563 52.8878 64.563C52.8878 64.563 54.5172 62.8103 55.1607 62.0164C55.53 61.5506 55.9684 61.0031 56.4338 60.387V60.5651C56.4338 62.6599 54.4077 64.0699 53.5039 64.6451ZM63.5258 62.3584C63.2929 62.1941 63.3342 61.6466 64.1145 59.9351C64.4157 59.2643 65.1278 58.1419 66.3462 57.06C66.483 57.4984 66.579 57.9225 66.5652 58.3196C66.5517 60.9623 64.662 61.9478 63.5258 62.3584Z" fill="white"/>
</g>
</svg>
