<svg width="96" height="96" viewBox="0 0 96 96" fill="none" xmlns="http://www.w3.org/2000/svg">
<path d="M20.1671 60.6634C20.1671 66.2156 15.6391 70.7504 10.0862 70.7504C4.5341 70.7504 0 66.2156 0 60.6634C0 55.1113 4.53486 50.5765 10.087 50.5765H20.1679L20.1671 60.6634ZM25.2489 60.6634C25.2489 55.1113 29.7837 50.5765 35.3358 50.5765C40.8879 50.5765 45.4228 55.1106 45.4228 60.6634V85.9131C45.4228 91.4652 40.8887 96 35.3358 96C29.7837 96 25.2489 91.4652 25.2489 85.9131V60.6634Z" fill="#DE1C59"/>
<path d="M35.3358 20.1671C29.7837 20.1671 25.2489 15.6391 25.2489 10.0862C25.2489 4.5341 29.7837 0 35.3358 0C40.8879 0 45.4228 4.53486 45.4228 10.087V20.1679L35.3358 20.1671ZM35.3358 25.2489C40.8879 25.2489 45.4228 29.7837 45.4228 35.3358C45.4228 40.8879 40.8887 45.4228 35.3358 45.4228H10.0862C4.5341 45.4228 0 40.8887 0 35.3358C0 29.7837 4.53486 25.2489 10.087 25.2489H35.3358Z" fill="#35C5F0"/>
<path d="M75.8323 35.3358C75.8323 29.7837 80.3604 25.2489 85.9132 25.2489C91.4653 25.2489 96.0002 29.7837 96.0002 35.3358C96.0002 40.8879 91.4653 45.4228 85.9132 45.4228H75.8323V35.3358ZM70.7506 35.3358C70.7506 40.8879 66.2157 45.4228 60.6636 45.4228C55.1115 45.4228 50.5767 40.8887 50.5767 35.3358V10.0862C50.5767 4.5341 55.1108 0 60.6636 0C66.2157 0 70.7506 4.53486 70.7506 10.087V35.3358Z" fill="#2EB57D"/>
<path d="M60.6636 75.8321C66.2157 75.8321 70.7506 80.3602 70.7506 85.9131C70.7506 91.4652 66.2157 96 60.6636 96C55.1115 96 50.5767 91.4652 50.5767 85.9131V75.8321H60.6636ZM60.6636 70.7504C55.1115 70.7504 50.5767 66.2156 50.5767 60.6634C50.5767 55.1113 55.1108 50.5765 60.6636 50.5765H85.9132C91.4653 50.5765 96.0002 55.1106 96.0002 60.6634C96.0002 66.2156 91.4653 70.7504 85.9132 70.7504H60.6636Z" fill="#EBB02E"/>
</svg>
