<svg width="97" height="96" viewBox="0 0 97 96" fill="none" xmlns="http://www.w3.org/2000/svg">
<mask id="mask0_103_17" style="mask-type:alpha" maskUnits="userSpaceOnUse" x="0" y="0" width="97" height="96">
<path fill-rule="evenodd" clip-rule="evenodd" d="M68.4292 95.5897C69.1971 95.889 70.0184 96.0272 70.842 95.9956C71.6655 95.9639 72.4738 95.7631 73.2164 95.4057L93.0839 85.8455C94.107 85.353 94.9703 84.5816 95.5745 83.6202C96.1787 82.6587 96.4991 81.5462 96.499 80.4107V15.5884C96.4993 14.4528 96.1789 13.3401 95.5747 12.3785C94.9705 11.4169 94.1071 10.6454 93.0839 10.1528L73.2164 0.594154C72.0938 0.0539918 70.831 -0.123855 69.6029 0.0852271C68.3747 0.294309 67.2419 0.879981 66.3613 1.76119L28.3272 36.46L11.7611 23.8843C11.0138 23.3169 10.0914 23.029 9.15402 23.0706C8.21664 23.1122 7.3234 23.4806 6.62928 24.112L1.31582 28.9452C0.901741 29.3218 0.570829 29.7807 0.344254 30.2925C0.117678 30.8043 0.000426923 31.3578 1.16368e-06 31.9176C-0.000424596 32.4773 0.115984 33.0309 0.341781 33.5431C0.567578 34.0553 0.897791 34.5147 1.3113 34.8919L15.6783 47.9992L1.31205 61.1072C0.89877 61.4845 0.568755 61.9438 0.343098 62.4559C0.117442 62.968 0.00110843 63.5216 0.00153414 64.0812C0.00195986 64.6408 0.119135 65.1941 0.345571 65.7059C0.572006 66.2176 0.90272 66.6765 1.31657 67.0532L6.63004 71.8864C7.32399 72.518 8.21721 72.8866 9.15463 72.9284C10.092 72.9701 11.0145 72.6823 11.7618 72.1148L28.3279 59.5398L66.362 94.2379C66.9501 94.827 67.6536 95.2874 68.4292 95.5897ZM72.3887 26.0932L43.5303 47.9992L72.3894 69.9059L72.3887 26.0932Z" fill="white"/>
</mask>
<g mask="url(#mask0_103_17)">
<path d="M93.0847 10.1686L73.2014 0.594113C72.0783 0.0535923 70.815 -0.124448 69.5863 0.0846365C68.3576 0.293721 67.2243 0.879588 66.3432 1.76114L1.25326 61.1071C0.839675 61.4842 0.509381 61.9436 0.283524 62.4557C0.0576679 62.9678 -0.0587742 63.5214 -0.0583484 64.0811C-0.0579227 64.6408 0.0593617 65.1943 0.285997 65.706C0.512632 66.2178 0.843625 66.6766 1.25779 67.0531L6.57427 71.8863C7.26885 72.5179 8.16254 72.8865 9.10039 72.9282C10.0383 72.97 10.9611 72.6822 11.7091 72.1148L90.0924 12.6512C92.722 10.6564 96.4991 12.5321 96.4991 15.8326V15.6019C96.499 14.4666 96.1785 13.3544 95.5745 12.3931C94.9705 11.4318 94.1075 10.6613 93.0847 10.1686Z" fill="#0065A9"/>
<g filter="url(#filter0_d_103_17)">
<path d="M93.0847 85.8304L73.2014 95.4034C72.0785 95.9441 70.8153 96.1224 69.5866 95.9136C68.3579 95.7047 67.2244 95.1192 66.3432 94.2379L1.25326 34.8911C0.839675 34.514 0.509381 34.0547 0.283524 33.5426C0.0576679 33.0305 -0.0587742 32.4768 -0.0583484 31.9171C-0.0579227 31.3574 0.0593617 30.804 0.285997 30.2922C0.512632 29.7804 0.843625 29.3216 1.25779 28.9451L6.57427 24.1119C7.26885 23.4803 8.16254 23.1117 9.10039 23.07C10.0383 23.0283 10.9611 23.3161 11.7091 23.8835L90.0924 83.3463C92.722 85.3419 96.4991 83.4662 96.4991 80.1656V80.3963C96.499 81.5316 96.1785 82.6438 95.5745 83.6051C94.9705 84.5664 94.1075 85.3377 93.0847 85.8304Z" fill="#007ACC"/>
</g>
<g filter="url(#filter1_d_103_17)">
<path d="M73.2022 95.4057C72.0789 95.9458 70.8155 96.1236 69.5867 95.9144C68.3579 95.7052 67.2245 95.1194 66.3433 94.2379C68.5688 96.4634 72.3744 94.887 72.3744 91.7395V4.25807C72.3744 1.11056 68.5688 -0.465842 66.3433 1.76041C67.2245 0.878961 68.3579 0.29312 69.5867 0.0839142C70.8155 -0.125292 72.0789 0.0524749 73.2022 0.592629L93.0817 10.1535C94.1054 10.6458 94.9693 11.4172 95.5738 12.3788C96.1784 13.3404 96.4992 14.4532 96.4991 15.5891V80.4107C96.4992 81.5466 96.1784 82.6594 95.5738 83.621C94.9693 84.5827 94.1054 85.354 93.0817 85.8463L73.2022 95.4057Z" fill="#1F9CF0"/>
</g>
<path opacity="0.25" fill-rule="evenodd" clip-rule="evenodd" d="M68.3712 95.5897C69.139 95.8889 69.9602 96.027 70.7836 95.9954C71.6071 95.9638 72.4152 95.763 73.1577 95.4057L93.0252 85.8455C94.0484 85.3529 94.9118 84.5815 95.516 83.6199C96.1202 82.6582 96.4406 81.5456 96.4403 80.4099V15.5884C96.4406 14.4528 96.1202 13.3401 95.516 12.3785C94.9118 11.4169 94.0484 10.6454 93.0252 10.1528L73.1577 0.594154C72.0351 0.0539918 70.7723 -0.123855 69.5442 0.0852271C68.316 0.294309 67.1832 0.879981 66.3025 1.76119L28.2685 36.46L11.7023 23.885C10.955 23.3176 10.0327 23.0297 9.0953 23.0713C8.15793 23.1129 7.26468 23.4814 6.57057 24.1127L1.2571 28.9459C0.843129 29.3226 0.51231 29.7815 0.285801 30.2934C0.059292 30.8052 -0.0579227 31.3586 -0.0583484 31.9183C-0.0587742 32.478 0.0575984 33.0316 0.283329 33.5438C0.509059 34.056 0.839179 34.5154 1.25258 34.8927L15.6196 47.9992L1.25334 61.1064C0.83983 61.4837 0.509617 61.9431 0.28382 62.4552C0.0580231 62.9674 -0.0583858 63.5211 -0.05796 64.0808C-0.0575343 64.6405 0.0597167 65.194 0.286292 65.7058C0.512868 66.2176 0.84378 66.6765 1.25786 67.0532L6.57132 71.8864C7.26535 72.5179 8.15854 72.8864 9.09592 72.9282C10.0333 72.9699 10.9557 72.6821 11.7031 72.1148L28.27 59.5391L66.3041 94.2379C66.8919 94.827 67.5959 95.2873 68.3712 95.5897ZM72.3307 26.0924L43.4715 47.9992L72.3307 69.9051V26.0924Z" fill="url(#paint0_linear_103_17)"/>
</g>
<defs>
<filter id="filter0_d_103_17" x="-6.30885" y="16.8155" width="109.058" height="85.4335" filterUnits="userSpaceOnUse" color-interpolation-filters="sRGB">
<feFlood flood-opacity="0" result="BackgroundImageFix"/>
<feColorMatrix in="SourceAlpha" type="matrix" values="0 0 0 0 0 0 0 0 0 0 0 0 0 0 0 0 0 0 127 0" result="hardAlpha"/>
<feOffset/>
<feGaussianBlur stdDeviation="3.12525"/>
<feColorMatrix type="matrix" values="0 0 0 0 0 0 0 0 0 0 0 0 0 0 0 0 0 0 0.25 0"/>
<feBlend mode="overlay" in2="BackgroundImageFix" result="effect1_dropShadow_103_17"/>
<feBlend mode="normal" in="SourceGraphic" in2="effect1_dropShadow_103_17" result="shape"/>
</filter>
<filter id="filter1_d_103_17" x="60.0928" y="-6.2519" width="42.6568" height="108.502" filterUnits="userSpaceOnUse" color-interpolation-filters="sRGB">
<feFlood flood-opacity="0" result="BackgroundImageFix"/>
<feColorMatrix in="SourceAlpha" type="matrix" values="0 0 0 0 0 0 0 0 0 0 0 0 0 0 0 0 0 0 127 0" result="hardAlpha"/>
<feOffset/>
<feGaussianBlur stdDeviation="3.12525"/>
<feColorMatrix type="matrix" values="0 0 0 0 0 0 0 0 0 0 0 0 0 0 0 0 0 0 0.25 0"/>
<feBlend mode="overlay" in2="BackgroundImageFix" result="effect1_dropShadow_103_17"/>
<feBlend mode="normal" in="SourceGraphic" in2="effect1_dropShadow_103_17" result="shape"/>
</filter>
<linearGradient id="paint0_linear_103_17" x1="48.1909" y1="-0.00142407" x2="48.1909" y2="95.9998" gradientUnits="userSpaceOnUse">
<stop stop-color="white"/>
<stop offset="1" stop-color="white" stop-opacity="0"/>
</linearGradient>
</defs>
</svg>
