<svg width="80" height="80" viewBox="0 0 80 80" fill="none" xmlns="http://www.w3.org/2000/svg">
<rect x="2.5" y="2.5" width="75" height="75" rx="27.5" fill="white" stroke="#0094FF" stroke-width="5"/>
<path d="M30.7762 41.344L35.9602 51.064L34.1962 52.576C33.5242 52.456 32.7682 52.192 31.9282 51.784C31.0882 51.376 30.3562 50.86 29.7322 50.236L27.4282 41.812L22.1362 41.992V50.884L19.3642 52.576C18.3562 52.216 17.5762 51.676 17.0242 50.956L18.4282 39.904L17.9962 26.8L19.0402 26.08C19.3762 26.128 19.8562 26.308 20.4802 26.62C21.1282 26.932 21.6682 27.256 22.1002 27.592C23.0842 27.112 24.1162 26.752 25.1962 26.512C26.3002 26.272 27.3562 26.128 28.3642 26.08C29.3962 26.032 30.2962 26.092 31.0642 26.26C31.7122 26.62 32.3242 27.076 32.9002 27.628C33.4762 28.18 33.9802 28.744 34.4122 29.32C34.8682 29.872 35.2042 30.352 35.4202 30.76L34.9522 37.96L30.7762 41.344ZM30.6322 30.256C29.8882 30.136 29.0362 30.1 28.0762 30.148C27.1162 30.172 26.1442 30.28 25.1602 30.472C24.2002 30.664 23.2882 30.952 22.4242 31.336L22.2082 38.68L30.5962 36.88C30.7402 35.68 30.8122 34.504 30.8122 33.352C30.8362 32.176 30.7762 31.144 30.6322 30.256ZM62.8876 40.372L63.8956 52.072L61.8796 52.576C61.2556 52.264 60.6196 51.844 59.9716 51.316C59.3236 50.764 58.7956 50.104 58.3876 49.336L59.1796 39.904L58.8196 31.696L52.5196 50.812L51.1876 51.244C49.6516 50.356 48.4636 49.084 47.6236 47.428L44.8516 32.596L43.8796 40.372L43.5556 52.072L41.4676 52.576C40.2196 51.952 39.1756 50.872 38.3356 49.336L40.3876 39.904L41.3956 30.724L38.3716 30.832C38.0356 30.256 37.8436 29.596 37.7956 28.852C37.7716 28.084 37.8436 27.4 38.0116 26.8H43.2316C43.5916 26.968 44.0236 27.232 44.5276 27.592C45.0556 27.952 45.5836 28.336 46.1116 28.744C46.6636 29.152 47.1316 29.536 47.5156 29.896L51.0796 44.836L57.3076 27.268L58.3516 26.548C58.6156 26.596 58.9996 26.728 59.5036 26.944C60.0316 27.16 60.5476 27.4 61.0516 27.664C61.5556 27.928 61.9156 28.18 62.1316 28.42L62.8876 40.372Z" fill="#0094FF"/>
</svg>
