<svg width="637" height="934" viewBox="0 0 637 934" fill="none" xmlns="http://www.w3.org/2000/svg">
<path d="M37 104C37 65.3401 68.3401 34 107 34H567C605.66 34 637 65.3401 637 104V864C637 902.66 605.66 934 567 934H107C68.3401 934 37 902.66 37 864V104Z" fill="white" fill-opacity="0.35"/>
<g clip-path="url(#clip0_131_24820)">
<g clip-path="url(#clip1_131_24820)">
<rect width="600" height="900" rx="70" fill="white"/>
<rect x="0.5" y="0.5" width="599" height="899" rx="69.5" stroke="#020715" stroke-opacity="0.35"/>
<path d="M56.7964 107.751C54.7984 108.436 52.7439 108.334 50.6327 107.445C48.5577 106.482 47.0667 104.698 46.1597 102.094C45.8509 101.208 45.6037 100.052 45.418 98.6273C45.2324 97.2026 45.3724 95.8212 45.8382 94.4833C46.3595 93.1263 47.4804 92.153 49.2008 91.5634C48.9425 93.1403 48.8712 94.8082 48.9868 96.567C49.0832 98.2704 49.3147 99.6484 49.6814 100.701C49.9902 101.587 50.4763 102.537 51.1397 103.55C51.8032 104.563 52.603 105.343 53.5391 105.891C54.5308 106.419 55.6371 106.474 56.858 106.055C58.9669 105.333 60.6283 103.771 61.8422 101.37C63.0561 98.9699 63.9745 95.9885 64.5973 92.4262C65.2756 88.8449 65.8008 84.9129 66.1727 80.6304C66.3393 79.1469 66.4553 77.3397 66.5206 75.2088C66.586 73.0779 66.6404 70.8267 66.6841 68.4551C66.7084 66.0281 66.7243 63.6661 66.7317 61.369C66.7392 59.0718 66.7225 57.0621 66.6816 55.3396C66.6214 53.5618 66.5491 52.2842 66.4648 51.5069C67.5312 52.0717 68.3588 52.8423 68.9474 53.8189C69.5916 54.7764 70.1259 55.8646 70.5505 57.0834C71.2645 59.1333 71.5876 61.8443 71.5198 65.2164C71.5074 68.5695 71.3791 73.0166 71.135 78.5576C71.0575 81.1888 70.8244 83.9974 70.4357 86.9834C70.047 89.9693 69.341 92.8469 68.3177 95.6163C67.3499 98.3666 65.9417 100.834 64.0933 103.018C62.281 105.127 59.8487 106.705 56.7964 107.751Z" fill="black"/>
<path d="M59.5698 117C67.1057 117 73.6587 123.5 73.6587 130.65C73.618 133.17 72.9131 135.636 71.614 137.803C70.315 139.97 68.4671 141.761 66.2538 143C69.5303 141.375 74.314 141.375 74.314 141.375C82.5052 141.375 89.0581 147.225 89.0581 155.35C89.0581 163.475 82.5052 169 74.314 169C74.314 169 69.3992 169 62.8463 165.75C62.8463 165.75 61.8633 172.25 69.3992 182H49.7404C57.2763 172.25 56.2933 165.75 56.2933 165.75C49.7404 169 44.8256 169 44.8256 169C36.6344 169 30.0815 163.475 30.0815 155.35C30.0815 147.225 36.6344 141.375 44.8256 141.375C44.8256 141.375 49.6093 141.375 52.8858 143C51.9028 142.447 45.7758 139.002 45.4809 130.65C45.4809 123.5 52.0339 117 59.5698 117Z" fill="black"/>
<path d="M552.958 792.163C554.954 791.473 557.005 791.572 559.111 792.458C561.181 793.418 562.666 795.202 563.567 797.808C563.873 798.695 564.118 799.852 564.3 801.279C564.483 802.705 564.34 804.089 563.873 805.43C563.349 806.79 562.228 807.767 560.509 808.361C560.77 806.781 560.845 805.111 560.733 803.349C560.64 801.643 560.412 800.264 560.048 799.21C559.741 798.323 559.258 797.373 558.597 796.359C557.937 795.346 557.14 794.566 556.206 794.02C555.217 793.493 554.113 793.44 552.893 793.861C550.786 794.59 549.124 796.157 547.907 798.564C546.69 800.97 545.767 803.958 545.138 807.527C544.454 811.115 543.922 815.054 543.542 819.344C543.373 820.83 543.253 822.641 543.184 824.775C543.114 826.909 543.056 829.164 543.007 831.54C542.978 833.97 542.958 836.336 542.946 838.637C542.934 840.938 542.946 842.95 542.984 844.675C543.04 846.456 543.11 847.735 543.193 848.514C542.129 847.95 541.304 847.18 540.718 846.203C540.077 845.245 539.546 844.156 539.124 842.937C538.415 840.885 538.098 838.17 538.173 834.793C538.192 831.435 538.328 826.98 538.583 821.43C538.666 818.795 538.904 815.981 539.298 812.99C539.692 809.999 540.403 807.115 541.43 804.339C542.402 801.583 543.813 799.109 545.662 796.918C547.476 794.802 549.908 793.217 552.958 792.163Z" fill="black"/>
<path d="M550.184 783C542.709 783 536.209 776.5 536.209 769.35C536.25 766.83 536.949 764.364 538.237 762.197C539.526 760.03 541.359 758.239 543.554 757C540.304 758.625 535.559 758.625 535.559 758.625C527.434 758.625 520.934 752.775 520.934 744.65C520.934 736.525 527.434 731 535.559 731C535.559 731 540.434 731 546.934 734.25C546.934 734.25 547.909 727.75 540.434 718H559.934C552.459 727.75 553.434 734.25 553.434 734.25C559.934 731 564.809 731 564.809 731C572.934 731 579.434 736.525 579.434 744.65C579.434 752.775 572.934 758.625 564.809 758.625C564.809 758.625 560.064 758.625 556.814 757C557.789 757.552 563.867 760.998 564.159 769.35C564.159 776.5 557.659 783 550.184 783Z" fill="black"/>
<path d="M227.5 421.5C226.5 415 223 402.5 222 396.5C209.5 403 188.5 438 189.5 450H213C215 441 222.5 428.5 227.5 421.5Z" fill="#020715" stroke="#020715" stroke-width="2"/>
<rect x="432" y="147" width="75" height="262" fill="white" stroke="black" stroke-width="2"/>
<rect x="494.5" y="152.5" width="9" height="11" fill="white" stroke="black"/>
<rect x="475.5" y="152.5" width="9" height="11" fill="white" stroke="black"/>
<rect x="475.5" y="167.5" width="9" height="11" fill="white" stroke="black"/>
<rect x="475.5" y="182.5" width="9" height="11" fill="white" stroke="black"/>
<rect x="494.5" y="175.5" width="9" height="11" fill="white" stroke="black"/>
<rect x="494.5" y="190.5" width="9" height="11" fill="white" stroke="black"/>
<rect x="494.5" y="205.5" width="9" height="11" fill="white" stroke="black"/>
<rect x="494.5" y="220.5" width="9" height="11" fill="white" stroke="black"/>
<rect x="494.5" y="235.5" width="9" height="11" fill="white" stroke="black"/>
<rect x="494.5" y="250.5" width="9" height="11" fill="white" stroke="black"/>
<rect x="494.5" y="265.5" width="9" height="11" fill="white" stroke="black"/>
<rect x="494.5" y="280.5" width="9" height="11" fill="white" stroke="black"/>
<rect x="494.5" y="295.5" width="9" height="11" fill="white" stroke="black"/>
<rect x="494.5" y="310.5" width="9" height="11" fill="white" stroke="black"/>
<rect x="494.5" y="325.5" width="9" height="11" fill="white" stroke="black"/>
<rect x="494.5" y="340.5" width="9" height="11" fill="white" stroke="black"/>
<rect x="494.5" y="355.5" width="9" height="11" fill="white" stroke="black"/>
<rect x="494.5" y="370.5" width="9" height="11" fill="white" stroke="black"/>
<rect x="494.5" y="385.5" width="9" height="11" fill="white" stroke="black"/>
<rect x="475.5" y="197.5" width="9" height="11" fill="white" stroke="black"/>
<rect x="475.5" y="212.5" width="9" height="11" fill="white" stroke="black"/>
<rect x="475.5" y="227.5" width="9" height="11" fill="white" stroke="black"/>
<rect x="475.5" y="242.5" width="9" height="11" fill="white" stroke="black"/>
<rect x="475.5" y="257.5" width="9" height="11" fill="white" stroke="black"/>
<rect x="475.5" y="272.5" width="9" height="11" fill="white" stroke="black"/>
<rect x="475.5" y="287.5" width="9" height="11" fill="white" stroke="black"/>
<rect x="475.5" y="302.5" width="9" height="11" fill="white" stroke="black"/>
<rect x="475.5" y="317.5" width="9" height="11" fill="white" stroke="black"/>
<rect x="475.5" y="332.5" width="9" height="11" fill="white" stroke="black"/>
<rect x="475.5" y="347.5" width="9" height="11" fill="white" stroke="black"/>
<rect x="475.5" y="362.5" width="9" height="11" fill="white" stroke="black"/>
<rect x="475.5" y="377.5" width="9" height="11" fill="white" stroke="black"/>
<rect x="462.5" y="152.5" width="9" height="11" fill="white" stroke="black"/>
<rect x="462.5" y="167.5" width="9" height="11" fill="white" stroke="black"/>
<rect x="462.5" y="182.5" width="9" height="11" fill="white" stroke="black"/>
<rect x="462.5" y="197.5" width="9" height="11" fill="white" stroke="black"/>
<rect x="462.5" y="212.5" width="9" height="11" fill="white" stroke="black"/>
<rect x="462.5" y="227.5" width="9" height="11" fill="white" stroke="black"/>
<rect x="462.5" y="242.5" width="9" height="11" fill="white" stroke="black"/>
<rect x="462.5" y="257.5" width="9" height="11" fill="white" stroke="black"/>
<rect x="462.5" y="272.5" width="9" height="11" fill="white" stroke="black"/>
<rect x="462.5" y="287.5" width="9" height="11" fill="white" stroke="black"/>
<rect x="462.5" y="302.5" width="9" height="11" fill="white" stroke="black"/>
<rect x="462.5" y="317.5" width="9" height="11" fill="white" stroke="black"/>
<rect x="462.5" y="332.5" width="9" height="11" fill="white" stroke="black"/>
<rect x="462.5" y="347.5" width="9" height="11" fill="white" stroke="black"/>
<rect x="462.5" y="362.5" width="9" height="11" fill="white" stroke="black"/>
<rect x="449.5" y="152.5" width="9" height="11" fill="white" stroke="black"/>
<rect x="449.5" y="167.5" width="9" height="11" fill="white" stroke="black"/>
<rect x="449.5" y="182.5" width="9" height="11" fill="white" stroke="black"/>
<rect x="449.5" y="197.5" width="9" height="11" fill="white" stroke="black"/>
<rect x="449.5" y="212.5" width="9" height="11" fill="white" stroke="black"/>
<rect x="449.5" y="227.5" width="9" height="11" fill="white" stroke="black"/>
<rect x="449.5" y="242.5" width="9" height="11" fill="white" stroke="black"/>
<rect x="449.5" y="257.5" width="9" height="11" fill="white" stroke="black"/>
<rect x="449.5" y="272.5" width="9" height="11" fill="white" stroke="black"/>
<rect x="449.5" y="287.5" width="9" height="11" fill="white" stroke="black"/>
<rect x="449.5" y="302.5" width="9" height="11" fill="white" stroke="black"/>
<rect x="449.5" y="317.5" width="9" height="11" fill="white" stroke="black"/>
<rect x="449.5" y="332.5" width="9" height="11" fill="white" stroke="black"/>
<rect x="449.5" y="347.5" width="9" height="11" fill="white" stroke="black"/>
<rect x="436.5" y="152.5" width="9" height="11" fill="white" stroke="black"/>
<rect x="436.5" y="167.5" width="9" height="11" fill="white" stroke="black"/>
<rect x="436.5" y="182.5" width="9" height="11" fill="white" stroke="black"/>
<rect x="436.5" y="197.5" width="9" height="11" fill="white" stroke="black"/>
<rect x="436.5" y="212.5" width="9" height="11" fill="white" stroke="black"/>
<rect x="436.5" y="227.5" width="9" height="11" fill="white" stroke="black"/>
<rect x="436.5" y="242.5" width="9" height="11" fill="white" stroke="black"/>
<rect x="436.5" y="257.5" width="9" height="11" fill="white" stroke="black"/>
<rect x="436.5" y="272.5" width="9" height="11" fill="white" stroke="black"/>
<rect x="436.5" y="287.5" width="9" height="11" fill="white" stroke="black"/>
<rect x="436.5" y="302.5" width="9" height="11" fill="white" stroke="black"/>
<rect x="436.5" y="317.5" width="9" height="11" fill="white" stroke="black"/>
<rect x="436.5" y="332.5" width="9" height="11" fill="white" stroke="black"/>
<path d="M382.5 374L364 404C370.5 413.5 371.5 439.5 358.5 450H389C400 431 400.5 389 382.5 374Z" fill="#020715" stroke="#020715" stroke-width="2"/>
<path d="M398.5 345L389 361.5C413 394 409 422 402.5 450H422.5C429.5 425.5 427.5 372.5 398.5 345Z" fill="#020715"/>
<path d="M193 306L220 287C231.833 313.333 256.3 372.1 259.5 396.5C248.5 401 241.5 406.5 232.5 415.5C228.5 386.5 213 336 193 306Z" fill="#020715" stroke="#020715" stroke-width="2"/>
<path d="M184.5 312.5L158 335C161.167 370.167 157 420.5 99 441.5V450H149.5C179.5 424 199.5 375 184.5 312.5Z" fill="#020715" stroke="#020715" stroke-width="2"/>
<path d="M261 403.5C263 408 265.5 424 264.5 450H221.5C226 434.833 241.5 410.5 261 403.5Z" fill="#020715" stroke="#020715" stroke-width="2"/>
<path d="M438.5 276H394.5C371.5 305.5 334.5 357.5 317 404.5H363.5L438.5 276Z" fill="#020715" stroke="#020715" stroke-width="2"/>
<path d="M249.5 267L227 281.5C243.5 306.5 265 370 271.5 404H301C295 370.5 271.5 294.5 249.5 267Z" fill="#020715" stroke="#020715" stroke-width="2"/>
<path d="M336 281.5C335.5 280 337 276.5 337.5 276H395.5C364.5 314 331.5 363 316.5 404.5H300.5C297 377.5 272.5 293 249 267.5L256 263.5C275 288.5 295.5 335.5 305.5 396.5C309.833 376 355 301 376 281.5H336Z" fill="#E3E33F"/>
<path d="M438 276H395.5M395.5 276H337.5C337 276.5 335.5 280 336 281.5H376C355 301 309.833 376 305.5 396.5C295.5 335.5 275 288.5 256 263.5L249 267.5C272.5 293 297 377.5 300.5 404.5H316.5C331.5 363 364.5 314 395.5 276Z" stroke="#020715" stroke-width="2"/>
<path d="M422.5 450H429C441 415.5 430 366 402.5 340L399.5 345.5C426.5 377 429 409 422.5 450Z" fill="#E3E33F"/>
<path d="M416 315.5L411.5 322C435 345 455 379 466.5 430.5L472.5 426.5C461 381.5 441.5 343.5 416 315.5Z" fill="#E3E33F"/>
<path d="M226.5 281.5L219.5 287C231.5 303.5 250.5 353.5 261.5 404.5H271.5C257 350.5 246.5 315.5 226.5 281.5Z" fill="#E3E33F"/>
<path d="M479.5 423C467.5 375.5 442.5 335.5 420.5 308.5L439.5 275L511.5 339.5V411.5C503.667 412.833 488 418 479.5 423Z" fill="white" stroke="#020715" stroke-width="2"/>
<path d="M364.5 404.5L361.5 409.5L345.5 435L346 450H358C372 436 369.7 412.5 364.5 404.5Z" fill="#E3E33F"/>
<path d="M402.5 450H389.5C398.5 434 402.5 391.5 382.5 373.5L389.5 362C408 385.5 412.5 424.5 402.5 450Z" fill="#E3E33F"/>
<path d="M318 433.5V450H291V433.5H318Z" fill="#E3E33F"/>
<path d="M291 450H264.5V433.5L275 447H280L291 434.5V450Z" fill="#D01E1E"/>
<path d="M345 450H318V434L328.698 447.091H333.792L345 434.97V450Z" fill="#D01E1E"/>
<path d="M262 409C263 410.5 264.5 421.5 264 429H349L361.5 409H262Z" fill="#0E2885"/>
<path d="M277.54 414.576L284.207 414.645L280.749 426.609L274.083 426.54L277.54 414.576Z" fill="white"/>
<path d="M269.495 410.525L276.161 410.594L272.704 422.559L266.037 422.49L269.495 410.525Z" fill="white"/>
<path d="M287.581 410.68L294.248 410.749L290.79 422.713L284.124 422.644L287.581 410.68Z" fill="white"/>
<path d="M297.539 414.783L304.206 414.852L300.748 426.816L294.082 426.747L297.539 414.783Z" fill="white"/>
<path d="M307.58 410.887L314.246 410.956L310.789 422.92L304.123 422.851L307.58 410.887Z" fill="white"/>
<path d="M317.538 414.99L324.204 415.059L320.747 427.024L314.081 426.955L317.538 414.99Z" fill="white"/>
<path d="M327.579 411.094L334.245 411.163L330.788 423.127L324.122 423.058L327.579 411.094Z" fill="white"/>
<path d="M337.537 415.197L344.203 415.266L340.746 427.231L334.08 427.162L337.537 415.197Z" fill="white"/>
<path d="M347.578 411.301L354.244 411.37L350.787 423.335L344.121 423.265L347.578 411.301Z" fill="white"/>
<path d="M161.325 117C175.857 117 188.493 129.7 188.493 143.67C188.415 148.595 187.055 153.413 184.551 157.646C182.046 161.879 178.482 165.38 174.214 167.8C180.532 164.625 189.757 164.625 189.757 164.625C205.552 164.625 218.188 176.055 218.188 191.93C218.188 207.805 205.552 218.6 189.757 218.6C189.757 218.6 180.28 218.6 167.643 212.25C167.643 212.25 165.748 224.95 180.28 244H142.371C156.903 224.95 155.007 212.25 155.007 212.25C142.371 218.6 132.894 218.6 132.894 218.6C117.099 218.6 104.462 207.805 104.462 191.93C104.462 176.055 117.099 164.625 132.894 164.625C132.894 164.625 142.118 164.625 148.436 167.8C146.541 166.72 134.726 159.989 134.158 143.67C134.158 129.7 146.794 117 161.325 117Z" fill="#020715"/>
<path d="M174.878 270.49L158.435 295.6C150.902 307.104 135.471 310.323 123.967 302.79C112.464 295.257 109.245 279.825 116.778 268.322L133.221 243.212C140.753 231.708 156.185 228.49 167.689 236.022C179.192 243.555 182.411 258.987 174.878 270.49Z" fill="white" stroke="#020715"/>
<line x1="135.252" y1="241.453" x2="176.087" y2="267.336" stroke="#020715"/>
<line x1="155.572" y1="255.108" x2="167.965" y2="236.431" stroke="#020715"/>
<path d="M159.438 254.299C158.4 255.832 157.161 256.989 156.021 257.629C154.851 258.286 153.931 258.33 153.381 257.957C152.83 257.585 152.53 256.714 152.706 255.384C152.878 254.087 153.493 252.508 154.532 250.975C155.57 249.442 156.808 248.285 157.949 247.644C159.119 246.987 160.039 246.943 160.589 247.316C161.14 247.689 161.44 248.559 161.264 249.89C161.092 251.187 160.477 252.766 159.438 254.299Z" fill="#D9D9D9" stroke="#020715"/>
<path d="M142.67 348.183C135.744 348.297 118.784 341.088 111.65 328.505C102.908 323.453 102.226 317.114 105.036 312.449C95.6784 305.099 103.029 295.741 104.732 293.981C100.616 289.431 107.362 278.351 112.584 279.997L124.808 286.147C127.012 279.76 133.882 274.687 136.171 274.991C150.634 276.918 175.261 293.959 178.526 316.997L158.592 333.489L142.67 348.183Z" fill="white"/>
<path d="M111.65 328.505C118.784 341.088 135.744 348.297 142.67 348.183L158.592 333.489L178.526 316.997C175.261 293.959 150.634 276.918 136.171 274.991C133.882 274.687 127.012 279.76 124.808 286.147M111.65 328.505C102.908 323.453 102.226 317.114 105.036 312.449M111.65 328.505C117.478 331.873 128.089 331.506 130.127 328.778M105.036 312.449C95.6784 305.099 103.029 295.741 104.732 293.981M105.036 312.449C109.906 312.369 122.047 317.174 122.463 319.09M104.732 293.981C100.616 289.431 107.362 278.351 112.584 279.997L124.808 286.147M104.732 293.981C115.158 296.119 125.083 302.883 125.131 305.769M124.808 286.147C124.241 286.733 123.48 289.632 124.979 296.535M149.816 332.495C143.363 326.251 140.288 314.756 147.572 301.359C142.927 299.704 140.353 295.32 141.053 291.075C141.252 303.195 136.711 307.888 132.094 307.964M132.094 307.964C132.123 309.695 128.14 313.224 125.197 309.809M132.094 307.964C134.308 302.154 129.596 296.459 124.979 296.535M125.197 309.809L125.131 305.769M125.197 309.809C123.652 309.449 121.661 315.4 122.463 319.09M124.979 296.535L125.131 305.769M122.473 319.668C130.562 320.112 132.485 322.967 131.811 325.864C131.538 327.04 130.996 328.352 130.127 328.778M122.473 319.668C120.183 320.86 119.115 326.073 120.865 327.199C122.634 329.479 127.572 330.032 130.127 328.778M122.473 319.668C122.555 319.57 122.491 319.218 122.463 319.09M122.463 319.09C125.922 320.493 136.371 322.325 136.305 318.286C136.277 316.554 136.572 313.432 130.978 310.291" stroke="#020715"/>
<path d="M99 391.5C111.02 379.491 126.946 363.078 146.624 345C147.439 352.101 147.381 358.781 146.624 365.053C145.828 371.651 144.258 377.795 142.115 383.5C139.732 389.845 136.641 395.646 133.119 400.919C129.782 405.915 126.059 410.437 122.185 414.5C119.231 417.598 116.19 420.429 113.165 423C110.592 425.187 108.031 427.186 105.547 429C103.285 430.652 101.087 432.151 99 433.5V426.5V414.5V406V401.5V396V391.5Z" fill="#D01E1E"/>
<path d="M99 391.5C111.02 379.491 126.946 363.078 146.624 345C147.439 352.101 147.381 358.781 146.624 365.053M99 391.5L146.624 365.053M99 391.5V396M146.624 365.053C145.828 371.651 144.258 377.795 142.115 383.5M99 396L142.115 383.5M99 396V401.5M142.115 383.5C139.732 389.845 136.641 395.646 133.119 400.919M99 401.5L133.119 400.919M99 401.5V406M133.119 400.919C129.782 405.915 126.059 410.437 122.185 414.5M99 406L122.185 414.5M99 406V414.5M122.185 414.5C119.231 417.598 116.19 420.429 113.165 423M99 414.5L113.165 423M99 414.5V426.5M113.165 423C110.592 425.187 108.031 427.186 105.547 429M99 426.5V433.5C101.087 432.151 103.285 430.652 105.547 429M99 426.5L105.547 429" stroke="#020715" stroke-width="2"/>
<path d="M448 450H429C440 420.5 434 374.5 402.5 339.5L412.5 322C439 352.5 454 378.5 466 430.5C458.5 436 451.5 442.5 448 450Z" fill="#D01E1E" stroke="#020715" stroke-width="2"/>
<path d="M416 315.5L420 308.5C442 333 467 371 479.5 423L472.5 426.5C466 397.5 442.5 342 416 315.5Z" fill="#0E2885" stroke="#020715" stroke-width="2"/>
<path d="M439.11 304.5C440.277 301.5 440.91 294.6 436.11 291C436.443 293.833 435.324 298.5 433.61 301.5C431.61 305 430.777 308 431.11 310C431.443 312 432.81 316 437.61 318C436.11 314.167 435.11 310 439.11 304.5Z" fill="#0E2885"/>
<path d="M449.161 316.854C450.796 313.205 452.262 304.611 447.286 299.625C447.348 303.212 445.583 308.957 443.336 312.553C440.714 316.747 439.452 320.429 439.605 322.971C439.759 325.512 440.849 330.664 446.001 333.643C444.743 328.687 444.081 323.362 449.161 316.854Z" fill="#0E2885"/>
<path d="M460.05 329.546C462.036 325.2 464.09 314.895 458.869 308.747C458.754 313.067 456.517 319.932 453.86 324.196C450.76 329.17 449.182 333.566 449.221 336.63C449.26 339.695 450.195 345.93 455.712 349.667C454.582 343.663 454.126 337.233 460.05 329.546Z" fill="#0E2885"/>
<path d="M471.839 345.758C474.307 340.516 477.001 328.04 470.938 320.481C470.696 325.725 467.869 334.022 464.603 339.152C460.794 345.137 458.81 350.447 458.782 354.169C458.753 357.891 459.715 365.479 466.189 370.114C464.99 362.804 464.604 354.988 471.839 345.758Z" fill="#0E2885"/>
<path d="M484.083 363.131C487.244 356.503 491.119 340.66 484.646 330.897C484.037 337.575 480.273 348.089 476.206 354.557C471.461 362.103 468.852 368.828 468.585 373.571C468.318 378.314 468.942 388.005 476.07 394.052C475.157 384.709 475.208 374.739 484.083 363.131Z" fill="#0E2885"/>
<path d="M499.299 380.673C503.552 373.334 508.806 355.494 500.218 343.778C499.371 351.382 494.292 363.124 488.831 370.205C482.46 378.467 478.943 385.962 478.561 391.375C478.18 396.789 478.962 407.945 488.444 415.455C487.274 404.675 487.393 393.253 499.299 380.673Z" fill="#0E2885"/>
<rect x="415" y="257" width="13" height="19" fill="#E3E33F"/>
<circle cx="421.5" cy="267" r="4.5" stroke="#020715"/>
<rect x="402" y="257" width="13" height="19" fill="#020715"/>
<circle cx="408" cy="267" r="4.5" stroke="#E3E33F"/>
<path d="M428 257V257C434.382 255.936 440.258 260.69 440.552 267.153L440.636 268.987C440.829 273.245 437.252 276.712 433.002 276.385L428 276V257Z" fill="#020715"/>
<circle cx="434" cy="267" r="4.5" stroke="#E3E33F"/>
<path d="M339 276C342.845 267.989 349.683 261.809 358.041 258.791L363 257V276H339V276Z" fill="#020715"/>
<circle cx="356" cy="267" r="4.5" stroke="#E3E33F"/>
<rect x="389" y="257" width="13" height="19" fill="#E3E33F"/>
<circle cx="395.5" cy="267" r="4.5" stroke="#020715"/>
<rect x="363" y="257" width="13" height="19" fill="#E3E33F"/>
<circle cx="369.5" cy="267" r="4.5" stroke="#020715"/>
<rect x="376" y="257" width="13" height="19" fill="#020715"/>
<circle cx="382.5" cy="267" r="4.5" stroke="#E3E33F"/>
<path d="M404 311C411 297.5 405.5 288.5 416 277H406C394 292 400.5 299.5 391 311C379.5 320 359.5 344 357 370.5C350.5 387.5 341 389 329.5 404H341C351 390 362.5 389.5 367.5 370.5C371.5 339.5 395.338 327.705 404 311Z" fill="#E3E33F" stroke="#020715" stroke-width="2"/>
<ellipse cx="418.94" cy="290.682" rx="7.8" ry="3" transform="rotate(-14.3488 418.94 290.682)" fill="#E3E33F" stroke="#020715" stroke-width="2"/>
<ellipse cx="423.014" cy="281.808" rx="9.1" ry="3.5" transform="rotate(-23.2511 423.014 281.808)" fill="#E3E33F" stroke="#020715" stroke-width="2"/>
<ellipse cx="415.747" cy="298.238" rx="6.5" ry="2.5" transform="rotate(-6.67238 415.747 298.238)" fill="#E3E33F" stroke="#020715" stroke-width="2"/>
<ellipse cx="4.96787" cy="1.91072" rx="4.96787" ry="1.91072" transform="matrix(-0.599193 -0.800604 -0.800604 0.599193 396.672 297.131)" fill="#E3E33F" stroke="#020715" stroke-width="2"/>
<ellipse cx="5.79585" cy="2.22917" rx="5.79585" ry="2.22917" transform="matrix(-0.468082 -0.883685 -0.883685 0.468082 398.372 292.347)" fill="#E3E33F" stroke="#020715" stroke-width="2"/>
<ellipse cx="4.13989" cy="1.59227" rx="4.13989" ry="1.59227" transform="matrix(-0.700767 -0.71339 -0.71339 0.700767 394.769 301.16)" fill="#E3E33F" stroke="#020715" stroke-width="2"/>
<ellipse cx="6.15178" cy="2.36607" rx="6.15178" ry="2.36607" transform="matrix(-0.326019 -0.945363 -0.945363 0.326019 380.006 321.435)" fill="#E3E33F" stroke="#020715" stroke-width="2"/>
<ellipse cx="7.17708" cy="2.76041" rx="7.17708" ry="2.76041" transform="matrix(-0.175797 -0.984426 -0.984426 0.175797 383.82 316.438)" fill="#E3E33F" stroke="#020715" stroke-width="2"/>
<ellipse cx="5.12648" cy="1.97172" rx="5.12648" ry="1.97172" transform="matrix(-0.449378 -0.893342 -0.893342 0.449378 376.238 325.466)" fill="#E3E33F" stroke="#020715" stroke-width="2"/>
<ellipse cx="8.61149" cy="3.31211" rx="8.61149" ry="3.31211" transform="matrix(-0.285912 -0.958256 -0.958256 0.285912 344.702 387.292)" fill="#E3E33F" stroke="#020715" stroke-width="2"/>
<ellipse cx="10.0467" cy="3.86413" rx="10.0467" ry="3.86413" transform="matrix(-0.134178 -0.990957 -0.990957 0.134178 350.331 380.528)" fill="#E3E33F" stroke="#020715" stroke-width="2"/>
<ellipse cx="7.17624" cy="2.76009" rx="7.17624" ry="2.76009" transform="matrix(-0.411353 -0.911476 -0.911476 0.411353 339.195 392.708)" fill="#E3E33F" stroke="#020715" stroke-width="2"/>
<ellipse cx="392.248" cy="336.815" rx="7.09025" ry="2.72702" transform="rotate(0.604603 392.248 336.815)" fill="#E3E33F" stroke="#020715" stroke-width="2"/>
<ellipse cx="397.907" cy="329.977" rx="8.27196" ry="3.18152" transform="rotate(-8.29768 397.907 329.977)" fill="#E3E33F" stroke="#020715" stroke-width="2"/>
<ellipse cx="387.671" cy="342.701" rx="5.90854" ry="2.27252" transform="rotate(8.28106 387.671 342.701)" fill="#E3E33F" stroke="#020715" stroke-width="2"/>
<ellipse cx="373.685" cy="372.305" rx="4.96333" ry="1.90897" transform="rotate(-11.2689 373.685 372.305)" fill="#E3E33F" stroke="#020715" stroke-width="2"/>
<ellipse cx="376.577" cy="366.805" rx="5.79055" ry="2.22714" transform="rotate(-20.1712 376.577 366.805)" fill="#E3E33F" stroke="#020715" stroke-width="2"/>
<ellipse cx="371.398" cy="376.996" rx="4.13611" ry="1.59081" transform="rotate(-3.59248 371.398 376.996)" fill="#E3E33F" stroke="#020715" stroke-width="2"/>
<path d="M437 278.5L439.5 275.5L511.5 339.5L511 344L437 278.5Z" fill="#020715"/>
<ellipse cx="5.55545" cy="2.16236" rx="5.55545" ry="2.16236" transform="matrix(-0.981073 -0.193639 -0.187226 0.982317 251.335 302.594)" fill="#E3E33F" stroke="#020715" stroke-width="2"/>
<ellipse cx="6.48978" cy="2.51955" rx="6.48978" ry="2.51955" transform="matrix(-0.938714 -0.344697 -0.335416 0.94207 249.147 297.286)" fill="#E3E33F" stroke="#020715" stroke-width="2"/>
<ellipse cx="4.62649" cy="1.80313" rx="4.62649" ry="1.80313" transform="matrix(-0.998249 -0.0591506 -0.0560155 0.99843 252.789 307.424)" fill="#E3E33F" stroke="#020715" stroke-width="2"/>
<ellipse cx="5.86409" cy="2.27505" rx="5.86409" ry="2.27505" transform="matrix(-0.961481 -0.274872 -0.270308 0.962774 273.84 358.583)" fill="#E3E33F" stroke="#020715" stroke-width="2"/>
<ellipse cx="6.84787" cy="2.65176" rx="6.84787" ry="2.65176" transform="matrix(-0.906852 -0.42145 -0.414941 0.909848 272.011 352.825)" fill="#E3E33F" stroke="#020715" stroke-width="2"/>
<ellipse cx="4.88441" cy="1.89676" rx="4.88441" ry="1.89676" transform="matrix(-0.989759 -0.142751 -0.140494 0.990082 274.94 363.774)" fill="#E3E33F" stroke="#020715" stroke-width="2"/>
<ellipse cx="5.10444" cy="1.98033" rx="5.10444" ry="1.98033" transform="matrix(0.642281 -0.766469 0.763414 0.645909 285.649 391.314)" fill="#E3E33F" stroke="#020715" stroke-width="2"/>
<ellipse cx="5.96077" cy="2.30825" rx="5.96077" ry="2.30825" transform="matrix(0.514893 -0.857254 0.853543 0.521022 284.159 386.271)" fill="#E3E33F" stroke="#020715" stroke-width="2"/>
<ellipse cx="4.40517" cy="1.71464" rx="4.40517" ry="1.71464" transform="matrix(0.490615 -0.871377 0.868153 0.496297 267.061 325.826)" fill="#E3E33F" stroke="#020715" stroke-width="2"/>
<ellipse cx="5.14604" cy="1.99787" rx="5.14604" ry="1.99787" transform="matrix(0.348293 -0.937386 0.933903 0.357527 264.99 321.771)" fill="#E3E33F" stroke="#020715" stroke-width="2"/>
<ellipse cx="4.9464" cy="1.91544" rx="4.9464" ry="1.91544" transform="matrix(0.172989 -0.984924 0.983659 0.180041 246.936 280.689)" fill="#E3E33F" stroke="#020715" stroke-width="2"/>
<path d="M264.5 322C261.5 293.5 253 285.5 237 275.5L229.5 280.5C243 288.5 254.077 300 254.5 310C256 345.5 273 345 274.5 360.5C278 377.5 268 391 283.5 404H294C284.5 397.5 283.221 386 283.5 379.5C285.15 341 270 344.5 264.5 322Z" fill="#E3E33F" stroke="#020715"/>
<path d="M181.5 450H159.5C174.5 429 213 388 188 310.5C201 331 214 360.5 219.5 387C207.167 393.333 188 421 181.5 450Z" fill="#D01E1E" stroke="#020715" stroke-width="2"/>
<path d="M407.085 157.887C409.632 177.887 384.679 232.887 401.484 257.387H362.273C347.505 262.387 334.775 275.887 335.793 281.387H376.531C362.273 289.887 305.239 382.887 305.239 397.887C296.794 338.851 276.563 295.673 262.833 273.998C277.231 276.498 287.925 272.498 293.947 267.498C294.028 264.033 293.159 260.089 290.981 258.498C284.361 259.792 275.055 261.405 262.833 259.295C264.021 254.128 255.334 231.387 251.77 231.387C250.557 229.304 254.351 224.509 258.803 224.265C255.663 223.825 251.099 222.082 249.733 217.387C251.6 217.22 253.297 210.887 251.77 209.387C247.696 209.887 239.548 203.887 239.548 198.387C242.773 198.554 253.807 186.887 256.862 173.387C259.578 164.72 263.788 145.787 258.899 139.387C293.357 134.887 391.299 141.387 407.085 157.887Z" fill="white"/>
<path d="M255.334 263.387C257.451 265.978 260.004 269.531 262.833 273.998M336.811 225.998C338.339 238.498 315.096 253.783 290.981 258.498M290.981 258.498C284.361 259.792 275.055 261.405 262.833 259.295C264.021 254.128 255.334 231.387 251.77 231.387C250.412 229.054 255.334 223.319 260.427 224.387C257.541 224.387 251.362 222.987 249.733 217.387C251.6 217.22 253.297 210.887 251.77 209.387C247.696 209.887 239.548 203.887 239.548 198.387C242.773 198.554 253.807 186.887 256.862 173.387C259.578 164.72 263.788 145.787 258.899 139.387C293.357 134.887 391.299 141.387 407.085 157.887C409.632 177.887 384.679 232.887 401.484 257.387H362.273C347.505 262.387 334.775 275.887 335.793 281.387H376.531C362.273 289.887 305.239 382.887 305.239 397.887C296.794 338.851 276.563 295.673 262.833 273.998M290.981 258.498C293.159 260.089 294.028 264.033 293.947 267.498M287.925 281.387C291.348 279.169 293.82 272.941 293.947 267.498M293.947 267.498C287.925 272.498 277.231 276.498 262.833 273.998" stroke="#020715" stroke-width="2"/>
<path d="M305.5 396C293.5 331 273.5 290 263.5 274.5L271.5 278L280 280.5L287 282L298 283H311L336.5 281.5H376.5C340.5 322.5 326 349 305.5 396Z" fill="#0E2885"/>
<path d="M346 301L287 301C299 326 302.5 339.5 308 365C317.5 341 330 323 346 301Z" fill="#D01E1E"/>
<path d="M99 391.5C111.02 379.491 126.946 363.078 146.624 345M99 391.5L146.624 365.053M99 391.5V396M99 449.5V433.5M219.688 286.5C230.028 279.456 244.816 269.277 255.843 263C257.96 265.591 260.513 269.144 263.342 273.611C277.072 295.286 297.303 338.464 305.748 397.5C305.748 382.5 362.782 289.5 377.04 281H336.302C334.774 273.611 356.671 257 362.782 257H434.584C439.167 259 441.204 267 439.167 274.5M219.688 286.5C235.858 313.563 253.62 361.98 261.105 404.5M219.688 286.5C191.422 305.757 167.01 326.272 146.624 345M264.5 449.5C264.738 445.846 264.637 437.501 264.544 433.5M439.167 274.5L511.478 339.5V352M439.167 274.5C437.72 277.112 436.189 279.864 434.584 282.733M511.478 449.5V352M345.977 450L345.468 435C345.666 434.806 346.043 434.297 346.584 433.5M261.105 404.5H364.282M261.105 404.5C261.355 405.918 261.593 407.329 261.819 408.733M364.282 404.5C363.421 405.95 362.581 407.362 361.764 408.733M364.282 404.5C369.689 395.396 375.919 384.806 382.522 373.5M364.282 404.5C373 423 367 441 357.69 450M361.764 408.733H261.819M361.764 408.733C356.616 417.369 352.37 424.384 349.48 429M361.764 408.733C366 425 363.5 438.5 351.579 450M261.819 408.733C262.946 415.718 263.778 422.515 264.262 429M264.262 429H349.48M264.262 429C264.376 430.518 264.47 432.018 264.544 433.5M349.48 429C348.262 430.946 347.285 432.466 346.584 433.5M264.544 433.5H291.257M264.544 433.5C264.621 435.02 264.51 432.021 264.544 433.5ZM264.544 433.5L274.685 447H279.777L291.257 433.5M346.584 433.5H317.97M346.584 433.5L332.737 447H327.645L317.97 433.5M317.97 433.5V450M317.97 433.5H291.257M291.257 433.5L290.98 450M146.624 345C147.439 352.101 147.381 358.781 146.624 365.053M99 433.5V426.5M99 433.5C101.087 432.151 103.285 430.652 105.547 429M146.624 365.053C145.828 371.651 144.258 377.795 142.115 383.5M99 396L142.115 383.5M99 396V401.5M142.115 383.5C139.732 389.845 136.641 395.646 133.119 400.919M99 401.5L133.119 400.919M99 401.5V406M133.119 400.919C129.782 405.915 126.059 410.437 122.185 414.5M99 406L122.185 414.5M99 406V414.5M122.185 414.5C119.231 417.598 116.19 420.429 113.165 423M99 414.5L113.165 423M99 414.5V426.5M113.165 423C110.592 425.187 108.031 427.186 105.547 429M99 426.5L105.547 429M434.584 282.733L511.478 352M434.584 282.733C430.198 290.575 425.266 299.303 420.029 308.5M420.029 308.5C452.407 345 472.267 389.5 479.396 423M420.029 308.5C418.716 310.806 417.383 313.141 416.036 315.5M416.036 315.5C438.148 336.5 468.193 400.5 472.267 426.5M416.036 315.5C414.808 317.649 413.567 319.818 412.317 322M412.317 322C435.019 341.2 463.61 402.5 466.156 431.5M412.317 322C409.014 327.765 405.642 333.629 402.256 339.5M402.256 339.5C441.155 381.5 436.281 430.333 428.982 449.5M402.256 339.5C401.198 341.334 400.139 343.168 399.08 345M399.08 345C431.15 380.6 427.964 429.833 422.362 450M399.08 345C395.79 350.693 392.501 356.365 389.262 361.935M389.262 361.935C412.317 389.5 409.631 433.5 402.256 450M389.262 361.935C387.979 364.141 386.704 366.331 385.44 368.5M385.44 368.5C406.5 391.5 405 429 395.373 450M385.44 368.5C384.46 370.18 383.487 371.848 382.522 373.5M382.522 373.5C405.048 395.644 395.373 443 389.262 450" stroke="#020715" stroke-width="2"/>
<path d="M268.065 172.261C265.519 174.498 266.877 178.664 268.065 179.498C270.611 177.998 271.12 174.498 268.065 172.261Z" fill="#1B1BC5"/>
<path d="M262.973 166.998C267.047 160.498 281.814 165.498 286.397 169.998M263.991 174.498C265.053 172.991 266.483 172.344 268.065 172.261M279.268 177.498C276.736 175.248 271.943 172.057 268.065 172.261M268.065 172.261C265.519 174.498 266.877 178.664 268.065 179.498C270.611 177.998 271.12 174.498 268.065 172.261Z" stroke="#020715" stroke-width="2"/>
<path d="M338.339 184.024C345.977 170.024 364.819 180.024 364.31 187.524C364.819 209.024 345.977 231.024 336.302 220.524M357.181 191.524C357.995 183.124 344.959 180.024 344.45 190.024C357.181 202.524 349.542 205.024 341.394 210.024C336.302 212.024 339.867 201.024 343.431 201.524" stroke="#020715" stroke-width="2"/>
<path d="M264.01 183.498C264.01 187.942 263.174 191.918 261.865 194.745C260.518 197.655 258.857 198.998 257.371 198.998C255.886 198.998 254.225 197.655 252.878 194.745C251.569 191.918 250.733 187.942 250.733 183.498C250.733 179.053 251.569 175.077 252.878 172.25C254.225 169.34 255.886 167.998 257.371 167.998C258.857 167.998 260.518 169.34 261.865 172.25C263.174 175.077 264.01 179.053 264.01 183.498Z" fill="white" stroke="#020715" stroke-width="2"/>
<line y1="-1" x2="77.4097" y2="-1" transform="matrix(0.999917 -0.0129183 0.0133996 0.99991 263.991 181.998)" stroke="#020715" stroke-width="2"/>
<path d="M234.456 113.5C238.53 115.002 253.807 131.5 258.899 139.5C305.239 135 397.41 143 407.085 158C409.632 153 441.204 116.5 450.37 113L234.456 113.5Z" fill="#D01E1E" stroke="#020715" stroke-width="2"/>
<path d="M447.824 450C458.008 431.5 484.998 417.5 511.478 411.5V418C506.01 419.027 500.668 420.789 495.584 423C501.293 423 508.932 426.5 511.478 430V442.5C509.441 437 497.729 430 488.053 427C488.185 426.791 488.416 426.572 488.716 426.348C484.281 428.729 480.026 431.415 476.341 434C500.5 436 511 448 510.459 450H503.33H495.584H481.433H474.304H468.193C468.193 443 469.5 440.5 475.978 434.255C467.643 440.146 461.606 445.952 458.008 450H447.824Z" fill="#E3E33F"/>
<path d="M495.584 423C500.668 420.789 506.01 419.027 511.478 418V411.5C484.998 417.5 458.008 431.5 447.824 450H458.008C461.606 445.952 467.643 440.146 475.978 434.255M495.584 423C501.293 423 508.932 426.5 511.478 430V442.5C509.441 437 497.729 430 488.053 427C489 425.5 495 423.5 495.584 423ZM495.584 423C488.765 425.966 481.904 430.098 476.341 434M476.341 434C500.5 436 511 448 510.459 450H503.33M476.341 434C476.22 434.085 476.099 434.17 475.978 434.255M475.978 434.255C469.5 440.5 468.193 443 468.193 450H474.304M474.304 450C473 448 476.85 441 481.433 441C493.5 442 501.802 446.996 503.33 450M474.304 450H481.433M503.33 450H495.584M481.433 450C480 448 479 445 482.5 445C486 445 494 448.5 495.584 450M481.433 450H495.584" stroke="#020715" stroke-width="2"/>
<path d="M468 450H458C462 444.834 466.75 442 472 437.5C469.667 439.5 465.6 444.8 468 450Z" fill="#020715"/>
<path d="M477 434C483.667 432.834 504.5 439.5 511.5 448.5V441C506.5 435.5 496.5 429 488 427C485 428 479 432 477 434Z" fill="#020715"/>
<path d="M511.5 430V418C506.5 419 503.5 420 496 423C500 422 509.5 426.5 511.5 430Z" fill="#020715"/>
<path d="M468 450H458C462 444.834 466.75 442 472 437.5C469.667 439.5 465.6 444.8 468 450Z" stroke="#020715" stroke-width="2"/>
<path d="M477 434C483.667 432.834 504.5 439.5 511.5 448.5V441C506.5 435.5 496.5 429 488 427C485 428 479 432 477 434Z" stroke="#020715" stroke-width="2"/>
<path d="M511.5 430V418C506.5 419 503.5 420 496 423C500 422 509.5 426.5 511.5 430Z" stroke="#020715" stroke-width="2"/>
<path d="M146.5 345.5L158 335C164.5 407.5 125 431.5 99 442V450H104C102.5 449 102.167 441.333 103 440.5L105.5 439.5L110.5 437C114 444.5 121 448.5 130 447.5C134.5 441.5 133.5 430.5 126 427.5C129.5 424 132 422 134.5 420C139 423.5 149 427.5 156 425C157.5 417.5 153 408 145.5 405.5L150.5 396C159 397.5 168 394.5 172 390C169 383.5 162.5 378 156.5 377.5C157.5 371.5 158 366 158.5 364C165 364.5 174.5 360.5 176.5 355C174 350 172 347.5 159 346.5V339C157.5 335.457 158 334 161.5 332C175.5 334.8 186.062 347.833 189.592 354C189.596 350.746 189.499 347.413 189.29 344C186.526 339 178 328.5 168 326.5L175.5 320C177.167 319.333 182.356 320.7 187.779 329.5C186.977 324.017 185.895 318.35 184.5 312.5L188 310L192.5 306C201.814 318.862 209.357 334.085 215.48 350.577C214.699 346.604 214.572 341.928 215.5 336.5C194 324 199.5 296.5 220 287.5L224.5 295.5C204.5 299.5 202.5 326 227.5 332.5C221.333 339.167 214.8 355.1 238 365.5C219 380 242.5 406.829 258 389L259.5 394.5L256 396.5C229.5 413 222.194 379 227.5 368C224.842 366.762 221.068 363.733 218.335 358.659C224.532 377.094 229.099 396.835 232.493 416.459C240.536 407.411 249.897 400.44 259.5 396.5L261 403.5C243 408.5 224 435.5 221.5 450H213C217.124 437.871 223.601 426.802 231.404 417.705L227.5 422C226.081 413.155 224.303 404.43 222.194 395.845C213 401 190.5 428 189.5 450H181.5C186 435.5 191.5 411 219.754 386.5C212.209 359.244 201.336 333.514 188 310C209.5 377 185.5 419.5 159.5 450H149C164.615 436.254 189.527 404.767 189.592 354C188 361 177.5 370 173.5 372C177 375 183.5 387 183.5 392.5C179.5 400.5 167.5 405 162 406C165.5 411.5 167.167 427.833 165 431.5C158.5 435.5 150 434.5 143.5 433.5C144.5 436.5 143.637 446.5 142 450H135H115H104H99V442V433.5C142.5 405.5 152 365.5 146.5 345.5Z" fill="#E3E33F"/>
<path d="M252.5 435C234 411 249.2 409 262 409C262.488 409 263.64 413.373 264.439 430.647C264.513 431.154 264.528 431.614 264.5 432V441V450H255H249C250 445.5 256.5 435.5 264.5 432C264.48 431.54 264.46 431.089 264.439 430.647C264.066 428.086 262.176 424.335 256.5 423C266.5 436 249.4 446.4 239 440C237.333 440.833 236.7 444 247.5 450H228.5C226 439.5 225 426.058 240 435.5C237 429.5 232.238 415 252.5 435Z" fill="#E3E33F"/>
<path d="M99 442C125 431.5 164.5 407.5 158 335L146.5 345.5C152 365.5 142.5 405.5 99 433.5V442ZM99 442V450H142M188 310L184.5 312.5C185.895 318.35 186.977 324.017 187.779 329.5M188 310C209.5 377 185.5 419.5 159.5 450H149C164.615 436.254 189.527 404.767 189.592 354M188 310L192.5 306C213.5 335 225.5 376 232.5 416.5L227.5 422C226.081 413.155 224.303 404.43 222.194 395.845M188 310C201.336 333.514 212.209 359.244 219.754 386.5M219.754 386.5C191.5 411 186 435.5 181.5 450H189.5C190.5 428 213 401 222.194 395.845M219.754 386.5C220.611 389.596 221.425 392.711 222.194 395.845M219.754 386.5L222.194 395.845M264.5 432C264.667 429.667 263.3 424.6 256.5 423C266.5 436 249.4 446.4 239 440C237.333 440.833 236.7 444 247.5 450H228.5C226 439.5 225 426.058 240 435.5C237 429.5 232.238 415 252.5 435C234 411 249.2 409 262 409C262.5 409 263.7 413.6 264.5 432ZM264.5 432C256.5 435.5 250 445.5 249 450H255M264.5 432V441M264.5 441C258.5 441.5 255.667 447 255 450M264.5 441V450H255M264.5 441C261.667 441 256 444 255 450M187.779 329.5C182.356 320.7 177.167 319.333 175.5 320L168 326.5C178 328.5 186.526 339 189.29 344M187.779 329.5C188.507 334.484 189.003 339.317 189.29 344M189.29 344C189.499 347.413 189.596 350.746 189.592 354M189.592 354C186.062 347.833 175.5 334.8 161.5 332C158 334 157.5 335.457 159 339M189.592 354C188 361 177.5 370 173.5 372C177 375 183.5 387 183.5 392.5C179.5 400.5 167.5 405 162 406C165.5 411.5 167.167 427.833 165 431.5C158.5 435.5 150 434.5 143.5 433.5C144.5 436.5 143.637 446.5 142 450M142 450C141.766 450.5 142.118 449.85 142 450ZM142 450H135M105.5 439.5C107.9 446.3 112.667 450 115 450M105.5 439.5L103 440.5C102.167 441.333 102.5 449 104 450H115M105.5 439.5L110.5 437C114 444.5 121 448.5 130 447.5C134.5 441.5 133.5 430.5 126 427.5C129.5 424 132 422 134.5 420C139 423.5 149 427.5 156 425C157.5 417.5 153 408 145.5 405.5L150.5 396C159 397.5 168 394.5 172 390C169 383.5 162.5 378 156.5 377.5C157.5 371.5 158 366 158.5 364C165 364.5 174.5 360.5 176.5 355C174 350 172 347.5 159 346.5C159 344.5 159 341.5 159 339M115 450H135M135 450C140 442.5 140.5 435 135 427.5C145.5 431 156 431 160.5 428C163 418 158.333 408.833 152.5 402C166.5 402 174 397 178.5 391.5C178 382.5 166.667 373.5 161.5 371.5C174.5 368 182 360 184 355C181.5 346.5 164.5 339.5 159 339M259.5 396.5C240 404.5 221.5 425 213 450H221.5C224 435.5 243 408.5 261 403.5L259.5 396.5ZM220 287.5C199.5 296.5 194 324 215.5 336.5C212.218 355.7 222.132 365.5 227.5 368C222.194 379 229.5 413 256 396.5L259.5 394.5L258 389C242.5 406.829 219 380 238 365.5C214.8 355.1 221.333 339.167 227.5 332.5C202.5 326 204.5 299.5 224.5 295.5L220 287.5Z" stroke="#020715" stroke-width="2"/>
<path d="M227.5 333C200.5 323 206.5 300 224 295.5C230.178 307.635 235.041 318.212 238.923 327.5C244.428 340.671 247.959 351.249 250.467 360C254.205 373.049 255.667 382.036 258 389.5C239 405.5 221 380 237.5 365.5C226.5 360 214.5 349.5 227.5 333Z" fill="#D01E1E"/>
<path d="M227.5 333C200.5 323 206.5 300 224 295.5C230.178 307.635 235.041 318.212 238.923 327.5M227.5 333L238.923 327.5M227.5 333C214.5 349.5 226.5 360 237.5 365.5M238.923 327.5C244.428 340.671 247.959 351.249 250.467 360M237.5 365.5L250.467 360M237.5 365.5C221 380 239 405.5 258 389.5C255.667 382.036 254.205 373.049 250.467 360" stroke="#020715" stroke-width="2"/>
<ellipse cx="7.08889" cy="2.7451" rx="7.08889" ry="2.7451" transform="matrix(-0.0517374 -0.998661 0.999006 -0.0445809 356.734 348.403)" fill="#E3E33F" stroke="#020715" stroke-width="2"/>
<ellipse cx="7.08889" cy="2.7451" rx="7.08889" ry="2.7451" transform="matrix(0.858246 -0.513238 0.507076 0.861901 357 392.276)" fill="#E3E33F" stroke="#020715" stroke-width="2"/>
<path d="M226.5 416.5L227.5 422C223.5 425 212.833 446.333 213 450H205.5H195C193 448.5 192 446.5 191.5 444.5C196 441.5 203 439 209 439.997C201.8 436.799 198.5 428 198.5 424C203 422.5 214.5 423.5 218 424.83C210 420.166 208.5 412.666 208.5 409.5C215.5 409 224 411.5 226.5 416.5Z" fill="#E3E33F"/>
<path d="M226.5 416.5L227.5 422C223.5 425 212.833 446.333 213 450H195M226.5 416.5C223.209 419.106 220.406 421.899 218 424.83M226.5 416.5C224 411.5 215.5 409 208.5 409.5C208.5 412.666 210 420.166 218 424.83M205.5 450C206.478 446.647 207.612 443.295 209 439.997M190 450H195M195 450C193 448.5 192 446.5 191.5 444.5C196 441.5 203 439 209 439.997M209 439.997C201.8 436.799 198.5 428 198.5 424C203 422.5 214.5 423.5 218 424.83M209 439.997C211.218 434.728 214.084 429.598 218 424.83" stroke="#020715" stroke-width="2"/>
<path d="M407 357.5C401 355.5 400 356 392.5 356.5L389.5 362C413 396.5 409.5 422 402.5 450C408 450.166 419.5 450 421.5 450C417.833 446.833 411.5 442.5 406.5 439C412.5 437.5 418.5 437.5 424 432.5C420.5 427.5 411.6 423.5 408 423.5C413.5 421.5 421.5 419 425 413.5C421.5 409.5 412.7 406.1 407.5 406.5C412.667 403.5 421 398.5 422.5 393C419.5 390 411.3 389.3 404.5 390.5C408.5 388 415.5 382 417 376C413 373 403.5 373 399 375C402.667 371.5 407 366 407 357.5Z" fill="#E3E33F" stroke="#020715" stroke-width="2"/>
<path d="M368 398L377.5 382C384 381 388.5 384 385.5 388.5C391.5 388 400.5 399 388 403.5C392.416 407.474 390.982 412.229 382.32 412.941C390.638 413.355 397.879 417.226 390.5 422C400.5 429.5 393.5 435 388 436.5C388.5 447.5 381.5 447.5 373.5 439.5C371.5 440.7 372.333 443.667 373 445C375.8 443.8 389 447 383.5 450H367.5C362.5 448 364.167 441.667 366.5 440C367 434.5 370.5 428 383 428.5C369.8 426.5 369.5 420 368 416C367.5 404.5 372.5 402.5 381.5 396C377 396.5 370 398.5 368 398Z" fill="#E3E33F"/>
<path d="M368 398L377.5 382C384 381 388.5 384 385.5 388.5C391.5 388 400.5 399 388 403.5C393 408 390.5 413.5 378.5 413C388.1 412.2 399 416.5 390.5 422C400.5 429.5 393.5 435 388 436.5C388.5 447.5 381.5 447.5 373.5 439.5C371.5 440.7 372.333 443.667 373 445C375.8 443.8 389 447 383.5 450H367.5C362.5 448 364.167 441.667 366.5 440C367 434.5 370.5 428 383 428.5C369.8 426.5 369.5 420 368 416C367.5 404.5 372.5 402.5 381.5 396C377 396.5 370 398.5 368 398Z" stroke="#020715" stroke-width="2"/>
<path d="M271.5 114.34C271.5 116.34 277 117.84 285.5 133.34C294.7 132.54 301 133.007 303 133.34C303.8 119.34 299.5 116.34 299.5 114.34" stroke="white" stroke-width="2"/>
<path d="M316.5 114.2C316.5 116.2 318 120.36 322 133.7C331 134.86 343 134.7 355 136.2C355.8 122.2 358 116.2 358 114.2" stroke="white" stroke-width="2"/>
<path d="M373.5 114.2C373.5 118.5 375 120.5 373 138C383.5 138.5 396.5 142 405 147C416.5 127 430 116 430 114" stroke="white" stroke-width="2"/>
<path d="M261.5 169C255.667 162.5 247.5 148.3 259.5 139.5C305.5 136 395.28 141.5 406.5 158.5C423 183.5 383 210.5 399.5 254C397 253 393.5 249.7 391.5 244.5C391.5 247 389.5 246 394 253.5C391 253 384.9 249.2 380.5 228C379.667 229 377.7 235.5 384.5 249.5C380.5 248.5 374 242.8 374 226C372.833 226.167 370.3 233.3 373.5 244.5C367 240 359.8 215.3 365 184.5C361.5 173 342.5 174 338.5 180.5C329.333 182 313.6 191.6 324 218C319.5 213 308 196.7 306 183.5C288 180 285 170 283.5 156C282.667 157.167 278 162.5 282.5 180C277.565 173.333 270.855 161.7 271.5 152.5C269.333 153 266.5 157.5 272 168.5C268.333 168.333 261 165.8 261 149C260 149.667 257.1 155 261.5 169Z" fill="#020715"/>
<path d="M306 183.5C288 180 285 170 283.5 156C282.667 157.167 278 162.5 282.5 180C277.565 173.333 270.855 161.7 271.5 152.5C269.333 153 266.5 157.5 272 168.5C268.333 168.333 261 165.8 261 149C260 149.667 257.1 155 261.5 169C255.667 162.5 247.5 148.3 259.5 139.5C305.5 136 395.28 141.5 406.5 158.5C423 183.5 383 210.5 399.5 254C397 253 393.5 249.7 391.5 244.5C391.5 247 389.5 246 394 253.5C391 253 384.9 249.2 380.5 228C379.667 229 377.7 235.5 384.5 249.5C380.5 248.5 374 242.8 374 226C372.833 226.167 370.3 233.3 373.5 244.5C367 240 359.8 215.3 365 184.5C361.5 173 342.5 174 338.5 180.5C329.333 182 313.6 191.6 324 218C319.5 213 308 196.7 306 183.5ZM306 183.5C294 175.5 288 169 286.5 160.5" stroke="#020715" stroke-width="2"/>
<path d="M99 112V111H98V112H99ZM512 112H513V111H512V112ZM99 113H512V111H99V113ZM511 112V450H513V112H511ZM100 450V112H98V450H100Z" fill="black" mask="url(#path-8-inside-1_131_24820)"/>
<path d="M382.5 478.5C383.5 485 387 497.5 388 503.5C400.5 497 421.5 462 420.5 450H397C395 459 387.5 471.5 382.5 478.5Z" fill="#020715" stroke="#020715" stroke-width="2"/>
<rect x="178" y="753" width="75" height="262" transform="rotate(180 178 753)" fill="white" stroke="black" stroke-width="2"/>
<rect x="115.5" y="747.5" width="9" height="11" transform="rotate(180 115.5 747.5)" fill="white" stroke="black"/>
<rect x="134.5" y="747.5" width="9" height="11" transform="rotate(180 134.5 747.5)" fill="white" stroke="black"/>
<rect x="134.5" y="732.5" width="9" height="11" transform="rotate(180 134.5 732.5)" fill="white" stroke="black"/>
<rect x="134.5" y="717.5" width="9" height="11" transform="rotate(180 134.5 717.5)" fill="white" stroke="black"/>
<rect x="115.5" y="724.5" width="9" height="11" transform="rotate(180 115.5 724.5)" fill="white" stroke="black"/>
<rect x="115.5" y="709.5" width="9" height="11" transform="rotate(180 115.5 709.5)" fill="white" stroke="black"/>
<rect x="115.5" y="694.5" width="9" height="11" transform="rotate(180 115.5 694.5)" fill="white" stroke="black"/>
<rect x="115.5" y="679.5" width="9" height="11" transform="rotate(180 115.5 679.5)" fill="white" stroke="black"/>
<rect x="115.5" y="664.5" width="9" height="11" transform="rotate(180 115.5 664.5)" fill="white" stroke="black"/>
<rect x="115.5" y="649.5" width="9" height="11" transform="rotate(180 115.5 649.5)" fill="white" stroke="black"/>
<rect x="115.5" y="634.5" width="9" height="11" transform="rotate(180 115.5 634.5)" fill="white" stroke="black"/>
<rect x="115.5" y="619.5" width="9" height="11" transform="rotate(180 115.5 619.5)" fill="white" stroke="black"/>
<rect x="115.5" y="604.5" width="9" height="11" transform="rotate(180 115.5 604.5)" fill="white" stroke="black"/>
<rect x="115.5" y="589.5" width="9" height="11" transform="rotate(180 115.5 589.5)" fill="white" stroke="black"/>
<rect x="115.5" y="574.5" width="9" height="11" transform="rotate(180 115.5 574.5)" fill="white" stroke="black"/>
<rect x="115.5" y="559.5" width="9" height="11" transform="rotate(180 115.5 559.5)" fill="white" stroke="black"/>
<rect x="115.5" y="544.5" width="9" height="11" transform="rotate(180 115.5 544.5)" fill="white" stroke="black"/>
<rect x="115.5" y="529.5" width="9" height="11" transform="rotate(180 115.5 529.5)" fill="white" stroke="black"/>
<rect x="115.5" y="514.5" width="9" height="11" transform="rotate(180 115.5 514.5)" fill="white" stroke="black"/>
<rect x="134.5" y="702.5" width="9" height="11" transform="rotate(180 134.5 702.5)" fill="white" stroke="black"/>
<rect x="134.5" y="687.5" width="9" height="11" transform="rotate(180 134.5 687.5)" fill="white" stroke="black"/>
<rect x="134.5" y="672.5" width="9" height="11" transform="rotate(180 134.5 672.5)" fill="white" stroke="black"/>
<rect x="134.5" y="657.5" width="9" height="11" transform="rotate(180 134.5 657.5)" fill="white" stroke="black"/>
<rect x="134.5" y="642.5" width="9" height="11" transform="rotate(180 134.5 642.5)" fill="white" stroke="black"/>
<rect x="134.5" y="627.5" width="9" height="11" transform="rotate(180 134.5 627.5)" fill="white" stroke="black"/>
<rect x="134.5" y="612.5" width="9" height="11" transform="rotate(180 134.5 612.5)" fill="white" stroke="black"/>
<rect x="134.5" y="597.5" width="9" height="11" transform="rotate(180 134.5 597.5)" fill="white" stroke="black"/>
<rect x="134.5" y="582.5" width="9" height="11" transform="rotate(180 134.5 582.5)" fill="white" stroke="black"/>
<rect x="134.5" y="567.5" width="9" height="11" transform="rotate(180 134.5 567.5)" fill="white" stroke="black"/>
<rect x="134.5" y="552.5" width="9" height="11" transform="rotate(180 134.5 552.5)" fill="white" stroke="black"/>
<rect x="134.5" y="537.5" width="9" height="11" transform="rotate(180 134.5 537.5)" fill="white" stroke="black"/>
<rect x="134.5" y="522.5" width="9" height="11" transform="rotate(180 134.5 522.5)" fill="white" stroke="black"/>
<rect x="147.5" y="747.5" width="9" height="11" transform="rotate(180 147.5 747.5)" fill="white" stroke="black"/>
<rect x="147.5" y="732.5" width="9" height="11" transform="rotate(180 147.5 732.5)" fill="white" stroke="black"/>
<rect x="147.5" y="717.5" width="9" height="11" transform="rotate(180 147.5 717.5)" fill="white" stroke="black"/>
<rect x="147.5" y="702.5" width="9" height="11" transform="rotate(180 147.5 702.5)" fill="white" stroke="black"/>
<rect x="147.5" y="687.5" width="9" height="11" transform="rotate(180 147.5 687.5)" fill="white" stroke="black"/>
<rect x="147.5" y="672.5" width="9" height="11" transform="rotate(180 147.5 672.5)" fill="white" stroke="black"/>
<rect x="147.5" y="657.5" width="9" height="11" transform="rotate(180 147.5 657.5)" fill="white" stroke="black"/>
<rect x="147.5" y="642.5" width="9" height="11" transform="rotate(180 147.5 642.5)" fill="white" stroke="black"/>
<rect x="147.5" y="627.5" width="9" height="11" transform="rotate(180 147.5 627.5)" fill="white" stroke="black"/>
<rect x="147.5" y="612.5" width="9" height="11" transform="rotate(180 147.5 612.5)" fill="white" stroke="black"/>
<rect x="147.5" y="597.5" width="9" height="11" transform="rotate(180 147.5 597.5)" fill="white" stroke="black"/>
<rect x="147.5" y="582.5" width="9" height="11" transform="rotate(180 147.5 582.5)" fill="white" stroke="black"/>
<rect x="147.5" y="567.5" width="9" height="11" transform="rotate(180 147.5 567.5)" fill="white" stroke="black"/>
<rect x="147.5" y="552.5" width="9" height="11" transform="rotate(180 147.5 552.5)" fill="white" stroke="black"/>
<rect x="147.5" y="537.5" width="9" height="11" transform="rotate(180 147.5 537.5)" fill="white" stroke="black"/>
<rect x="160.5" y="747.5" width="9" height="11" transform="rotate(180 160.5 747.5)" fill="white" stroke="black"/>
<rect x="160.5" y="732.5" width="9" height="11" transform="rotate(180 160.5 732.5)" fill="white" stroke="black"/>
<rect x="160.5" y="717.5" width="9" height="11" transform="rotate(180 160.5 717.5)" fill="white" stroke="black"/>
<rect x="160.5" y="702.5" width="9" height="11" transform="rotate(180 160.5 702.5)" fill="white" stroke="black"/>
<rect x="160.5" y="687.5" width="9" height="11" transform="rotate(180 160.5 687.5)" fill="white" stroke="black"/>
<rect x="160.5" y="672.5" width="9" height="11" transform="rotate(180 160.5 672.5)" fill="white" stroke="black"/>
<rect x="160.5" y="657.5" width="9" height="11" transform="rotate(180 160.5 657.5)" fill="white" stroke="black"/>
<rect x="160.5" y="642.5" width="9" height="11" transform="rotate(180 160.5 642.5)" fill="white" stroke="black"/>
<rect x="160.5" y="627.5" width="9" height="11" transform="rotate(180 160.5 627.5)" fill="white" stroke="black"/>
<rect x="160.5" y="612.5" width="9" height="11" transform="rotate(180 160.5 612.5)" fill="white" stroke="black"/>
<rect x="160.5" y="597.5" width="9" height="11" transform="rotate(180 160.5 597.5)" fill="white" stroke="black"/>
<rect x="160.5" y="582.5" width="9" height="11" transform="rotate(180 160.5 582.5)" fill="white" stroke="black"/>
<rect x="160.5" y="567.5" width="9" height="11" transform="rotate(180 160.5 567.5)" fill="white" stroke="black"/>
<rect x="160.5" y="552.5" width="9" height="11" transform="rotate(180 160.5 552.5)" fill="white" stroke="black"/>
<rect x="173.5" y="747.5" width="9" height="11" transform="rotate(180 173.5 747.5)" fill="white" stroke="black"/>
<rect x="173.5" y="732.5" width="9" height="11" transform="rotate(180 173.5 732.5)" fill="white" stroke="black"/>
<rect x="173.5" y="717.5" width="9" height="11" transform="rotate(180 173.5 717.5)" fill="white" stroke="black"/>
<rect x="173.5" y="702.5" width="9" height="11" transform="rotate(180 173.5 702.5)" fill="white" stroke="black"/>
<rect x="173.5" y="687.5" width="9" height="11" transform="rotate(180 173.5 687.5)" fill="white" stroke="black"/>
<rect x="173.5" y="672.5" width="9" height="11" transform="rotate(180 173.5 672.5)" fill="white" stroke="black"/>
<rect x="173.5" y="657.5" width="9" height="11" transform="rotate(180 173.5 657.5)" fill="white" stroke="black"/>
<rect x="173.5" y="642.5" width="9" height="11" transform="rotate(180 173.5 642.5)" fill="white" stroke="black"/>
<rect x="173.5" y="627.5" width="9" height="11" transform="rotate(180 173.5 627.5)" fill="white" stroke="black"/>
<rect x="173.5" y="612.5" width="9" height="11" transform="rotate(180 173.5 612.5)" fill="white" stroke="black"/>
<rect x="173.5" y="597.5" width="9" height="11" transform="rotate(180 173.5 597.5)" fill="white" stroke="black"/>
<rect x="173.5" y="582.5" width="9" height="11" transform="rotate(180 173.5 582.5)" fill="white" stroke="black"/>
<rect x="173.5" y="567.5" width="9" height="11" transform="rotate(180 173.5 567.5)" fill="white" stroke="black"/>
<path d="M227.5 526L246 496C239.5 486.5 238.5 460.5 251.5 450H221C210 469 209.5 511 227.5 526Z" fill="#020715" stroke="#020715" stroke-width="2"/>
<path d="M211.5 555L221 538.5C197 506 201 478 207.5 450H187.5C180.5 474.5 182.5 527.5 211.5 555Z" fill="#020715"/>
<path d="M417 594L390 613C378.167 586.667 353.7 527.9 350.5 503.5C361.5 499 368.5 493.5 377.5 484.5C381.5 513.5 397 564 417 594Z" fill="#020715" stroke="#020715" stroke-width="2"/>
<path d="M425.5 587.5L452 565C448.833 529.833 453 479.5 511 458.5V450H460.5C430.5 476 410.5 525 425.5 587.5Z" fill="#020715" stroke="#020715" stroke-width="2"/>
<path d="M349 496.5C347 492 344.5 476 345.5 450H388.5C384 465.167 368.5 489.5 349 496.5Z" fill="#020715" stroke="#020715" stroke-width="2"/>
<path d="M171.5 624H215.5C238.5 594.5 275.5 542.5 293 495.5H246.5L171.5 624Z" fill="#020715" stroke="#020715" stroke-width="2"/>
<path d="M360.5 633L383 618.5C366.5 593.5 345 530 338.5 496H309C315 529.5 338.5 605.5 360.5 633Z" fill="#020715" stroke="#020715" stroke-width="2"/>
<path d="M274 618.5C274.5 620 273 623.5 272.5 624H214.5C245.5 586 278.5 537 293.5 495.5H309.5C313 522.5 337.5 607 361 632.5L354 636.5C335 611.5 314.5 564.5 304.5 503.5C300.167 524 255 599 234 618.5H274Z" fill="#E3E33F"/>
<path d="M172 624H214.5M214.5 624H272.5C273 623.5 274.5 620 274 618.5H234C255 599 300.167 524 304.5 503.5C314.5 564.5 335 611.5 354 636.5L361 632.5C337.5 607 313 522.5 309.5 495.5H293.5C278.5 537 245.5 586 214.5 624Z" stroke="#020715" stroke-width="2"/>
<path d="M187.5 450H181C169 484.5 180 534 207.5 560L210.5 554.5C183.5 523 181 491 187.5 450Z" fill="#E3E33F"/>
<path d="M194 584.5L198.5 578C175 555 155 521 143.5 469.5L137.5 473.5C149 518.5 168.5 556.5 194 584.5Z" fill="#E3E33F"/>
<path d="M383.5 618.5L390.5 613C378.5 596.5 359.5 546.5 348.5 495.5H338.5C353 549.5 363.5 584.5 383.5 618.5Z" fill="#E3E33F"/>
<path d="M130.5 477C142.5 524.5 167.5 564.5 189.5 591.5L170.5 625L98.5 560.5V488.5C106.333 487.167 122 482 130.5 477Z" fill="white" stroke="#020715" stroke-width="2"/>
<path d="M245.5 495.5L248.5 490.5L264.5 465L264 450H252C238 464 240.3 487.5 245.5 495.5Z" fill="#E3E33F"/>
<path d="M207.5 450H220.5C211.5 466 207.5 508.5 227.5 526.5L220.5 538C202 514.5 197.5 475.5 207.5 450Z" fill="#E3E33F"/>
<path d="M292 466.5V450H319V466.5H292Z" fill="#E3E33F"/>
<path d="M319 450H345.5V466.5L335 453H330L319 465.5V450Z" fill="#D01E1E"/>
<path d="M265 450H292V466L281.302 452.909H276.208L265 465.03V450Z" fill="#D01E1E"/>
<path d="M348 491C347 489.5 345.5 478.5 346 471H261L248.5 491H348Z" fill="#0E2885"/>
<path d="M332.46 485.424L325.793 485.355L329.251 473.391L335.917 473.46L332.46 485.424Z" fill="white"/>
<path d="M340.505 489.475L333.839 489.406L337.296 477.441L343.963 477.51L340.505 489.475Z" fill="white"/>
<path d="M322.419 489.32L315.752 489.251L319.21 477.287L325.876 477.356L322.419 489.32Z" fill="white"/>
<path d="M312.461 485.217L305.794 485.148L309.252 473.184L315.918 473.253L312.461 485.217Z" fill="white"/>
<path d="M302.42 489.113L295.754 489.044L299.211 477.08L305.877 477.149L302.42 489.113Z" fill="white"/>
<path d="M292.462 485.01L285.796 484.941L289.253 472.976L295.919 473.045L292.462 485.01Z" fill="white"/>
<path d="M282.421 488.906L275.755 488.837L279.212 476.873L285.878 476.942L282.421 488.906Z" fill="white"/>
<path d="M272.463 484.803L265.797 484.734L269.254 472.769L275.92 472.838L272.463 484.803Z" fill="white"/>
<path d="M262.422 488.699L255.756 488.63L259.213 476.665L265.879 476.735L262.422 488.699Z" fill="white"/>
<path d="M448.675 783C434.143 783 421.507 770.3 421.507 756.33C421.585 751.405 422.945 746.587 425.449 742.354C427.954 738.121 431.518 734.62 435.786 732.2C429.468 735.375 420.243 735.375 420.243 735.375C404.448 735.375 391.812 723.945 391.812 708.07C391.812 692.195 404.448 681.4 420.243 681.4C420.243 681.4 429.72 681.4 442.357 687.75C442.357 687.75 444.252 675.05 429.72 656H467.629C453.097 675.05 454.993 687.75 454.993 687.75C467.629 681.4 477.106 681.4 477.106 681.4C492.901 681.4 505.538 692.195 505.538 708.07C505.538 723.945 492.901 735.375 477.106 735.375C477.106 735.375 467.882 735.375 461.564 732.2C463.459 733.28 475.274 740.011 475.842 756.33C475.842 770.3 463.206 783 448.675 783Z" fill="#020715"/>
<path d="M435.122 629.51L451.565 604.4C459.098 592.897 474.529 589.678 486.033 597.211C497.536 604.743 500.755 620.175 493.222 631.679L476.78 656.789C469.247 668.292 453.815 671.511 442.312 663.978C430.808 656.445 427.589 641.014 435.122 629.51Z" fill="white" stroke="#020715"/>
<line x1="474.748" y1="658.548" x2="433.913" y2="632.664" stroke="#020715"/>
<line x1="454.428" y1="644.892" x2="442.035" y2="663.569" stroke="#020715"/>
<path d="M450.562 645.701C451.6 644.168 452.839 643.011 453.979 642.371C455.149 641.714 456.069 641.67 456.619 642.043C457.17 642.415 457.47 643.286 457.294 644.616C457.122 645.913 456.507 647.492 455.468 649.025C454.43 650.558 453.192 651.715 452.051 652.356C450.881 653.013 449.961 653.057 449.411 652.684C448.86 652.311 448.56 651.441 448.736 650.11C448.908 648.813 449.523 647.234 450.562 645.701Z" fill="#D9D9D9" stroke="#020715"/>
<path d="M467.33 551.817C474.256 551.703 491.216 558.912 498.35 571.495C507.093 576.547 507.774 582.886 504.964 587.551C514.322 594.901 506.971 604.259 505.268 606.019C509.384 610.569 502.638 621.649 497.416 620.003L485.192 613.853C482.988 620.24 476.118 625.313 473.83 625.009C459.366 623.082 434.739 606.041 431.474 583.003L451.408 566.511L467.33 551.817Z" fill="white"/>
<path d="M498.35 571.495C491.216 558.912 474.256 551.703 467.33 551.817L451.408 566.511L431.474 583.003C434.739 606.041 459.366 623.082 473.83 625.009C476.118 625.313 482.988 620.24 485.192 613.853M498.35 571.495C507.093 576.547 507.774 582.886 504.964 587.551M498.35 571.495C492.522 568.127 481.911 568.494 479.873 571.222M504.964 587.551C514.322 594.901 506.971 604.259 505.268 606.019M504.964 587.551C500.094 587.631 487.953 582.826 487.537 580.91M505.268 606.019C509.384 610.569 502.638 621.649 497.416 620.003L485.192 613.853M505.268 606.019C494.842 603.881 484.917 597.117 484.869 594.231M485.192 613.853C485.759 613.267 486.52 610.368 485.021 603.465M460.184 567.505C466.637 573.749 469.712 585.244 462.428 598.641C467.073 600.296 469.647 604.68 468.947 608.925C468.748 596.805 473.289 592.112 477.906 592.036M477.906 592.036C477.877 590.305 481.86 586.776 484.803 590.191M477.906 592.036C475.692 597.846 480.404 603.541 485.021 603.465M484.803 590.191L484.869 594.231M484.803 590.191C486.348 590.551 488.34 584.6 487.537 580.91M485.021 603.465L484.869 594.231M487.527 580.332C479.438 579.888 477.515 577.033 478.189 574.136C478.462 572.96 479.004 571.648 479.873 571.222M487.527 580.332C489.817 579.14 490.885 573.927 489.135 572.801C487.366 570.521 482.428 569.968 479.873 571.222M487.527 580.332C487.445 580.43 487.509 580.782 487.537 580.91M487.537 580.91C484.078 579.507 473.629 577.675 473.695 581.714C473.723 583.446 473.428 586.568 479.022 589.709" stroke="#020715"/>
<path d="M511 508.5C498.98 520.509 483.054 536.922 463.376 555C462.561 547.899 462.619 541.219 463.376 534.947C464.172 528.349 465.742 522.205 467.885 516.5C470.268 510.155 473.359 504.354 476.881 499.081C480.218 494.085 483.941 489.563 487.815 485.5C490.769 482.402 493.81 479.571 496.835 477C499.408 474.813 501.969 472.814 504.453 471C506.715 469.348 508.913 467.849 511 466.5V473.5V485.5V494V498.5V504V508.5Z" fill="#D01E1E"/>
<path d="M511 508.5C498.98 520.509 483.054 536.922 463.376 555C462.561 547.899 462.619 541.219 463.376 534.947M511 508.5L463.376 534.947M511 508.5V504M463.376 534.947C464.172 528.349 465.742 522.205 467.885 516.5M511 504L467.885 516.5M511 504V498.5M467.885 516.5C470.268 510.155 473.359 504.354 476.881 499.081M511 498.5L476.881 499.081M511 498.5V494M476.881 499.081C480.218 494.085 483.941 489.563 487.815 485.5M511 494L487.815 485.5M511 494V485.5M487.815 485.5C490.769 482.402 493.81 479.571 496.835 477M511 485.5L496.835 477M511 485.5V473.5M496.835 477C499.408 474.813 501.969 472.814 504.453 471M511 473.5V466.5C508.913 467.849 506.715 469.348 504.453 471M511 473.5L504.453 471" stroke="#020715" stroke-width="2"/>
<path d="M162 450H181C170 479.5 176 525.5 207.5 560.5L197.5 578C171 547.5 156 521.5 144 469.5C151.5 464 158.5 457.5 162 450Z" fill="#D01E1E" stroke="#020715" stroke-width="2"/>
<path d="M194 584.5L190 591.5C168 567 143 529 130.5 477L137.5 473.5C144 502.5 167.5 558 194 584.5Z" fill="#0E2885" stroke="#020715" stroke-width="2"/>
<path d="M170.89 595.5C169.723 598.5 169.09 605.4 173.89 609C173.557 606.167 174.676 601.5 176.39 598.5C178.39 595 179.223 592 178.89 590C178.557 588 177.19 584 172.39 582C173.89 585.833 174.89 590 170.89 595.5Z" fill="#0E2885"/>
<path d="M160.839 583.146C159.204 586.795 157.738 595.389 162.714 600.375C162.652 596.788 164.417 591.043 166.664 587.447C169.286 583.253 170.548 579.571 170.395 577.029C170.241 574.488 169.151 569.336 163.999 566.357C165.257 571.313 165.919 576.638 160.839 583.146Z" fill="#0E2885"/>
<path d="M149.95 570.454C147.964 574.8 145.91 585.105 151.131 591.253C151.246 586.933 153.483 580.068 156.14 575.804C159.24 570.83 160.818 566.434 160.779 563.37C160.74 560.305 159.805 554.07 154.288 550.333C155.418 556.337 155.874 562.767 149.95 570.454Z" fill="#0E2885"/>
<path d="M138.161 554.242C135.693 559.484 132.999 571.96 139.062 579.519C139.304 574.275 142.131 565.978 145.397 560.848C149.206 554.863 151.19 549.553 151.218 545.831C151.247 542.109 150.285 534.521 143.811 529.886C145.01 537.196 145.396 545.012 138.161 554.242Z" fill="#0E2885"/>
<path d="M125.917 536.869C122.756 543.497 118.881 559.34 125.354 569.103C125.963 562.425 129.727 551.911 133.794 545.443C138.539 537.897 141.148 531.172 141.415 526.429C141.682 521.686 141.058 511.995 133.93 505.948C134.843 515.291 134.792 525.261 125.917 536.869Z" fill="#0E2885"/>
<path d="M110.701 519.327C106.448 526.666 101.194 544.506 109.782 556.222C110.629 548.618 115.708 536.876 121.169 529.795C127.54 521.533 131.057 514.038 131.439 508.625C131.82 503.211 131.038 492.055 121.556 484.545C122.726 495.325 122.607 506.747 110.701 519.327Z" fill="#0E2885"/>
<rect x="195" y="643" width="13" height="19" transform="rotate(180 195 643)" fill="#E3E33F"/>
<circle cx="188.5" cy="633" r="4.5" transform="rotate(180 188.5 633)" stroke="#020715"/>
<rect x="208" y="643" width="13" height="19" transform="rotate(180 208 643)" fill="#020715"/>
<circle cx="202" cy="633" r="4.5" transform="rotate(180 202 633)" stroke="#E3E33F"/>
<path d="M182 643V643C175.618 644.064 169.742 639.31 169.448 632.847L169.364 631.013C169.171 626.755 172.748 623.288 176.998 623.615L182 624V643Z" fill="#020715"/>
<circle cx="176" cy="633" r="4.5" transform="rotate(180 176 633)" stroke="#E3E33F"/>
<path d="M271 624C267.155 632.011 260.317 638.191 251.959 641.209L247 643V624H271V624Z" fill="#020715"/>
<circle cx="254" cy="633" r="4.5" transform="rotate(180 254 633)" stroke="#E3E33F"/>
<rect x="221" y="643" width="13" height="19" transform="rotate(180 221 643)" fill="#E3E33F"/>
<circle cx="214.5" cy="633" r="4.5" transform="rotate(180 214.5 633)" stroke="#020715"/>
<rect x="247" y="643" width="13" height="19" transform="rotate(180 247 643)" fill="#E3E33F"/>
<circle cx="240.5" cy="633" r="4.5" transform="rotate(180 240.5 633)" stroke="#020715"/>
<rect x="234" y="643" width="13" height="19" transform="rotate(180 234 643)" fill="#020715"/>
<circle cx="227.5" cy="633" r="4.5" transform="rotate(180 227.5 633)" stroke="#E3E33F"/>
<path d="M206 589C199 602.5 204.5 611.5 194 623H204C216 608 209.5 600.5 219 589C230.5 580 250.5 556 253 529.5C259.5 512.5 269 511 280.5 496H269C259 510 247.5 510.5 242.5 529.5C238.5 560.5 214.662 572.295 206 589Z" fill="#E3E33F" stroke="#020715" stroke-width="2"/>
<ellipse cx="191.06" cy="609.318" rx="7.8" ry="3" transform="rotate(165.651 191.06 609.318)" fill="#E3E33F" stroke="#020715" stroke-width="2"/>
<ellipse cx="186.986" cy="618.192" rx="9.1" ry="3.5" transform="rotate(156.749 186.986 618.192)" fill="#E3E33F" stroke="#020715" stroke-width="2"/>
<ellipse cx="194.253" cy="601.762" rx="6.5" ry="2.5" transform="rotate(173.328 194.253 601.762)" fill="#E3E33F" stroke="#020715" stroke-width="2"/>
<ellipse cx="4.96787" cy="1.91072" rx="4.96787" ry="1.91072" transform="matrix(0.599193 0.800604 0.800604 -0.599193 213.328 602.869)" fill="#E3E33F" stroke="#020715" stroke-width="2"/>
<ellipse cx="5.79585" cy="2.22917" rx="5.79585" ry="2.22917" transform="matrix(0.468082 0.883685 0.883685 -0.468082 211.628 607.653)" fill="#E3E33F" stroke="#020715" stroke-width="2"/>
<ellipse cx="4.13989" cy="1.59227" rx="4.13989" ry="1.59227" transform="matrix(0.700767 0.71339 0.71339 -0.700767 215.231 598.84)" fill="#E3E33F" stroke="#020715" stroke-width="2"/>
<ellipse cx="6.15178" cy="2.36607" rx="6.15178" ry="2.36607" transform="matrix(0.326019 0.945363 0.945363 -0.326019 229.994 578.565)" fill="#E3E33F" stroke="#020715" stroke-width="2"/>
<ellipse cx="7.17708" cy="2.76041" rx="7.17708" ry="2.76041" transform="matrix(0.175797 0.984426 0.984426 -0.175797 226.18 583.562)" fill="#E3E33F" stroke="#020715" stroke-width="2"/>
<ellipse cx="5.12648" cy="1.97172" rx="5.12648" ry="1.97172" transform="matrix(0.449378 0.893342 0.893342 -0.449378 233.762 574.534)" fill="#E3E33F" stroke="#020715" stroke-width="2"/>
<ellipse cx="8.61149" cy="3.31211" rx="8.61149" ry="3.31211" transform="matrix(0.285912 0.958256 0.958256 -0.285912 265.298 512.708)" fill="#E3E33F" stroke="#020715" stroke-width="2"/>
<ellipse cx="10.0467" cy="3.86413" rx="10.0467" ry="3.86413" transform="matrix(0.134178 0.990957 0.990957 -0.134178 259.669 519.472)" fill="#E3E33F" stroke="#020715" stroke-width="2"/>
<ellipse cx="7.17624" cy="2.76009" rx="7.17624" ry="2.76009" transform="matrix(0.411353 0.911476 0.911476 -0.411353 270.805 507.292)" fill="#E3E33F" stroke="#020715" stroke-width="2"/>
<ellipse cx="217.752" cy="563.185" rx="7.09025" ry="2.72702" transform="rotate(-179.395 217.752 563.185)" fill="#E3E33F" stroke="#020715" stroke-width="2"/>
<ellipse cx="212.093" cy="570.023" rx="8.27196" ry="3.18152" transform="rotate(171.702 212.093 570.023)" fill="#E3E33F" stroke="#020715" stroke-width="2"/>
<ellipse cx="222.329" cy="557.299" rx="5.90854" ry="2.27252" transform="rotate(-171.719 222.329 557.299)" fill="#E3E33F" stroke="#020715" stroke-width="2"/>
<ellipse cx="236.315" cy="527.695" rx="4.96333" ry="1.90897" transform="rotate(168.731 236.315 527.695)" fill="#E3E33F" stroke="#020715" stroke-width="2"/>
<ellipse cx="233.423" cy="533.195" rx="5.79055" ry="2.22714" transform="rotate(159.829 233.423 533.195)" fill="#E3E33F" stroke="#020715" stroke-width="2"/>
<ellipse cx="238.602" cy="523.004" rx="4.13611" ry="1.59081" transform="rotate(176.408 238.602 523.004)" fill="#E3E33F" stroke="#020715" stroke-width="2"/>
<path d="M173 621.5L170.5 624.5L98.5 560.5L99 556L173 621.5Z" fill="#020715"/>
<ellipse cx="5.55545" cy="2.16236" rx="5.55545" ry="2.16236" transform="matrix(0.981073 0.193639 0.187226 -0.982317 358.665 597.406)" fill="#E3E33F" stroke="#020715" stroke-width="2"/>
<ellipse cx="6.48978" cy="2.51955" rx="6.48978" ry="2.51955" transform="matrix(0.938714 0.344697 0.335416 -0.94207 360.853 602.714)" fill="#E3E33F" stroke="#020715" stroke-width="2"/>
<ellipse cx="4.62649" cy="1.80313" rx="4.62649" ry="1.80313" transform="matrix(0.998249 0.0591506 0.0560155 -0.99843 357.211 592.577)" fill="#E3E33F" stroke="#020715" stroke-width="2"/>
<ellipse cx="5.86409" cy="2.27505" rx="5.86409" ry="2.27505" transform="matrix(0.961481 0.274872 0.270308 -0.962774 336.16 541.417)" fill="#E3E33F" stroke="#020715" stroke-width="2"/>
<ellipse cx="6.84787" cy="2.65176" rx="6.84787" ry="2.65176" transform="matrix(0.906852 0.42145 0.414941 -0.909848 337.989 547.175)" fill="#E3E33F" stroke="#020715" stroke-width="2"/>
<ellipse cx="4.88441" cy="1.89676" rx="4.88441" ry="1.89676" transform="matrix(0.989759 0.142751 0.140494 -0.990082 335.06 536.226)" fill="#E3E33F" stroke="#020715" stroke-width="2"/>
<ellipse cx="5.10444" cy="1.98033" rx="5.10444" ry="1.98033" transform="matrix(-0.642281 0.766469 -0.763414 -0.645909 324.351 508.686)" fill="#E3E33F" stroke="#020715" stroke-width="2"/>
<ellipse cx="5.96077" cy="2.30825" rx="5.96077" ry="2.30825" transform="matrix(-0.514893 0.857254 -0.853543 -0.521022 325.841 513.729)" fill="#E3E33F" stroke="#020715" stroke-width="2"/>
<ellipse cx="4.40517" cy="1.71464" rx="4.40517" ry="1.71464" transform="matrix(-0.490615 0.871377 -0.868153 -0.496297 342.939 574.174)" fill="#E3E33F" stroke="#020715" stroke-width="2"/>
<ellipse cx="5.14604" cy="1.99787" rx="5.14604" ry="1.99787" transform="matrix(-0.348293 0.937386 -0.933903 -0.357527 345.01 578.229)" fill="#E3E33F" stroke="#020715" stroke-width="2"/>
<ellipse cx="4.9464" cy="1.91544" rx="4.9464" ry="1.91544" transform="matrix(-0.172989 0.984924 -0.983659 -0.180041 363.064 619.311)" fill="#E3E33F" stroke="#020715" stroke-width="2"/>
<path d="M345.5 578C348.5 606.5 357 614.5 373 624.5L380.5 619.5C367 611.5 355.923 600 355.5 590C354 554.5 337 555 335.5 539.5C332 522.5 342 509 326.5 496H316C325.5 502.5 326.779 514 326.5 520.5C324.85 559 340 555.5 345.5 578Z" fill="#E3E33F" stroke="#020715"/>
<path d="M428.5 450H450.5C435.5 471 397 512 422 589.5C409 569 396 539.5 390.5 513C402.833 506.667 422 479 428.5 450Z" fill="#D01E1E" stroke="#020715" stroke-width="2"/>
<path d="M202.915 742.113C200.368 722.113 225.321 667.113 208.516 642.613H247.727C262.495 637.613 275.226 624.113 274.207 618.613H233.469C247.727 610.113 304.761 517.113 304.761 502.113C313.206 561.149 333.437 604.327 347.167 626.002C332.769 623.502 322.075 627.502 316.053 632.502C315.972 635.967 316.841 639.911 319.019 641.502C325.639 640.208 334.945 638.595 347.167 640.705C345.979 645.872 354.666 668.613 358.23 668.613C359.443 670.696 355.649 675.491 351.197 675.735C354.337 676.175 358.901 677.918 360.267 682.613C358.4 682.78 356.703 689.113 358.23 690.613C362.304 690.113 370.452 696.113 370.452 701.613C367.227 701.446 356.193 713.113 353.138 726.613C350.422 735.28 346.212 754.213 351.101 760.613C316.643 765.113 218.701 758.613 202.915 742.113Z" fill="white"/>
<path d="M354.666 636.613C352.549 634.022 349.996 630.469 347.167 626.002M273.189 674.002C271.661 661.502 294.904 646.217 319.019 641.502M319.019 641.502C325.639 640.208 334.945 638.595 347.167 640.705C345.979 645.872 354.666 668.613 358.23 668.613C359.588 670.946 354.666 676.681 349.573 675.613C352.459 675.613 358.638 677.013 360.267 682.613C358.4 682.78 356.703 689.113 358.23 690.613C362.304 690.113 370.452 696.113 370.452 701.613C367.227 701.446 356.193 713.113 353.138 726.613C350.422 735.28 346.212 754.213 351.101 760.613C316.643 765.113 218.701 758.613 202.915 742.113C200.368 722.113 225.321 667.113 208.516 642.613H247.727C262.495 637.613 275.226 624.113 274.207 618.613H233.469C247.727 610.113 304.761 517.113 304.761 502.113C313.206 561.149 333.437 604.327 347.167 626.002M319.019 641.502C316.841 639.911 315.972 635.967 316.053 632.502M322.075 618.613C318.652 620.831 316.18 627.059 316.053 632.502M316.053 632.502C322.075 627.502 332.769 623.502 347.167 626.002" stroke="#020715" stroke-width="2"/>
<path d="M304.5 504C316.5 569 336.5 610 346.5 625.5L338.5 622L330 619.5L323 618L312 617H299L273.5 618.5H233.5C269.5 577.5 284 551 304.5 504Z" fill="#0E2885"/>
<path d="M264 599L323 599C311 574 307.5 560.5 302 535C292.5 559 280 577 264 599Z" fill="#D01E1E"/>
<path d="M511 508.5C498.98 520.509 483.054 536.922 463.376 555M511 508.5L463.376 534.947M511 508.5V504M511 450.5V466.5M390.312 613.5C379.972 620.544 365.184 630.723 354.157 637C352.04 634.409 349.487 630.856 346.658 626.389C332.928 604.714 312.697 561.536 304.252 502.5C304.252 517.5 247.218 610.5 232.96 619H273.698C275.226 626.389 253.329 643 247.218 643H175.416C170.833 641 168.796 633 170.833 625.5M390.312 613.5C374.142 586.437 356.38 538.02 348.895 495.5M390.312 613.5C418.578 594.243 442.99 573.728 463.376 555M345.5 450.5C345.262 454.154 345.363 462.499 345.456 466.5M170.833 625.5L98.5222 560.5V548M170.833 625.5C172.28 622.888 173.811 620.136 175.416 617.267M98.5222 450.5V548M264.023 450L264.532 465C264.334 465.194 263.957 465.703 263.416 466.5M348.895 495.5H245.718M348.895 495.5C348.645 494.082 348.407 492.671 348.181 491.267M245.718 495.5C246.579 494.05 247.419 492.638 248.236 491.267M245.718 495.5C240.311 504.604 234.081 515.194 227.478 526.5M245.718 495.5C237 477 243 459 252.31 450M248.236 491.267H348.181M248.236 491.267C253.384 482.631 257.63 475.616 260.52 471M248.236 491.267C244 475 246.5 461.5 258.421 450M348.181 491.267C347.054 484.282 346.222 477.485 345.738 471M345.738 471H260.52M345.738 471C345.624 469.482 345.53 467.982 345.456 466.5M260.52 471C261.738 469.054 262.715 467.534 263.416 466.5M345.456 466.5H318.743M345.456 466.5C345.379 464.98 345.49 467.979 345.456 466.5ZM345.456 466.5L335.315 453H330.223L318.743 466.5M263.416 466.5H292.03M263.416 466.5L277.263 453H282.355L292.03 466.5M292.03 466.5V450M292.03 466.5H318.743M318.743 466.5L319.02 450M463.376 555C462.561 547.899 462.619 541.219 463.376 534.947M511 466.5V473.5M511 466.5C508.913 467.849 506.715 469.348 504.453 471M463.376 534.947C464.172 528.349 465.742 522.205 467.885 516.5M511 504L467.885 516.5M511 504V498.5M467.885 516.5C470.268 510.155 473.359 504.354 476.881 499.081M511 498.5L476.881 499.081M511 498.5V494M476.881 499.081C480.218 494.085 483.941 489.563 487.815 485.5M511 494L487.815 485.5M511 494V485.5M487.815 485.5C490.769 482.402 493.81 479.571 496.835 477M511 485.5L496.835 477M511 485.5V473.5M496.835 477C499.408 474.813 501.969 472.814 504.453 471M511 473.5L504.453 471M175.416 617.267L98.5222 548M175.416 617.267C179.802 609.425 184.734 600.697 189.971 591.5M189.971 591.5C157.593 555 137.733 510.5 130.604 477M189.971 591.5C191.284 589.194 192.617 586.859 193.964 584.5M193.964 584.5C171.852 563.5 141.807 499.5 137.733 473.5M193.964 584.5C195.192 582.351 196.433 580.182 197.683 578M197.683 578C174.981 558.8 146.39 497.5 143.844 468.5M197.683 578C200.986 572.235 204.358 566.371 207.744 560.5M207.744 560.5C168.845 518.5 173.719 469.667 181.018 450.5M207.744 560.5C208.802 558.666 209.861 556.832 210.92 555M210.92 555C178.85 519.4 182.036 470.167 187.638 450M210.92 555C214.21 549.307 217.499 543.635 220.738 538.065M220.738 538.065C197.683 510.5 200.369 466.5 207.744 450M220.738 538.065C222.021 535.859 223.296 533.669 224.56 531.5M224.56 531.5C203.5 508.5 205 471 214.627 450M224.56 531.5C225.54 529.82 226.513 528.152 227.478 526.5M227.478 526.5C204.952 504.356 214.627 457 220.738 450" stroke="#020715" stroke-width="2"/>
<path d="M341.935 727.739C344.481 725.502 343.123 721.336 341.935 720.502C339.389 722.002 338.88 725.502 341.935 727.739Z" fill="#1B1BC5"/>
<path d="M347.027 733.002C342.953 739.502 328.186 734.502 323.603 730.002M346.009 725.502C344.947 727.009 343.517 727.656 341.935 727.739M330.732 722.502C333.264 724.752 338.057 727.943 341.935 727.739M341.935 727.739C344.481 725.502 343.123 721.336 341.935 720.502C339.389 722.002 338.88 725.502 341.935 727.739Z" stroke="#020715" stroke-width="2"/>
<path d="M271.661 715.976C264.023 729.976 245.181 719.976 245.69 712.476C245.181 690.976 264.023 668.976 273.698 679.476M252.819 708.476C252.005 716.876 265.041 719.976 265.55 709.976C252.819 697.476 260.458 694.976 268.606 689.976C273.698 687.976 270.133 698.976 266.569 698.476" stroke="#020715" stroke-width="2"/>
<path d="M345.99 716.502C345.99 712.058 346.826 708.082 348.135 705.255C349.482 702.345 351.143 701.002 352.629 701.002C354.114 701.002 355.775 702.345 357.122 705.255C358.431 708.082 359.267 712.058 359.267 716.502C359.267 720.947 358.431 724.923 357.122 727.75C355.775 730.66 354.114 732.002 352.629 732.002C351.143 732.002 349.482 730.66 348.135 727.75C346.826 724.923 345.99 720.947 345.99 716.502Z" fill="white" stroke="#020715" stroke-width="2"/>
<line y1="-1" x2="77.4097" y2="-1" transform="matrix(-0.999917 0.0129183 -0.0133996 -0.99991 346.009 718.002)" stroke="#020715" stroke-width="2"/>
<path d="M375.544 786.5C371.47 784.998 356.193 768.5 351.101 760.5C304.761 765 212.59 757 202.915 742C200.368 747 168.796 783.5 159.63 787L375.544 786.5Z" fill="#D01E1E" stroke="#020715" stroke-width="2"/>
<path d="M162.176 450C151.992 468.5 125.002 482.5 98.5222 488.5V482C103.99 480.973 109.332 479.211 114.416 477C108.707 477 101.068 473.5 98.5222 470V457.5C100.559 463 112.271 470 121.947 473C121.815 473.209 121.584 473.428 121.284 473.652C125.719 471.271 129.974 468.585 133.659 466C109.5 464 99 452 99.5406 450H106.67H114.416H128.567H135.696H141.807C141.807 457 140.5 459.5 134.022 465.745C142.357 459.854 148.394 454.048 151.992 450H162.176Z" fill="#E3E33F"/>
<path d="M114.416 477C109.332 479.211 103.99 480.973 98.5222 482V488.5C125.002 482.5 151.992 468.5 162.176 450H151.992C148.394 454.048 142.357 459.854 134.022 465.745M114.416 477C108.707 477 101.068 473.5 98.5222 470V457.5C100.559 463 112.271 470 121.947 473C121 474.5 115 476.5 114.416 477ZM114.416 477C121.235 474.034 128.096 469.902 133.659 466M133.659 466C109.5 464 99 452 99.5406 450H106.67M133.659 466C133.78 465.915 133.901 465.83 134.022 465.745M134.022 465.745C140.5 459.5 141.807 457 141.807 450H135.696M135.696 450C137 452 133.15 459 128.567 459C116.5 458 108.198 453.004 106.67 450M135.696 450H128.567M106.67 450H114.416M128.567 450C130 452 131 455 127.5 455C124 455 116 451.5 114.416 450M128.567 450H114.416" stroke="#020715" stroke-width="2"/>
<path d="M142 450H152C148 455.166 143.25 458 138 462.5C140.333 460.5 144.4 455.2 142 450Z" fill="#020715"/>
<path d="M133 466C126.333 467.166 105.5 460.5 98.5 451.5V459C103.5 464.5 113.5 471 122 473C125 472 131 468 133 466Z" fill="#020715"/>
<path d="M98.5 470V482C103.5 481 106.5 480 114 477C110 478 100.5 473.5 98.5 470Z" fill="#020715"/>
<path d="M142 450H152C148 455.166 143.25 458 138 462.5C140.333 460.5 144.4 455.2 142 450Z" stroke="#020715" stroke-width="2"/>
<path d="M133 466C126.333 467.166 105.5 460.5 98.5 451.5V459C103.5 464.5 113.5 471 122 473C125 472 131 468 133 466Z" stroke="#020715" stroke-width="2"/>
<path d="M98.5 470V482C103.5 481 106.5 480 114 477C110 478 100.5 473.5 98.5 470Z" stroke="#020715" stroke-width="2"/>
<path d="M463.5 554.5L452 565C445.5 492.5 485 468.5 511 458V450H506C507.5 451 507.833 458.667 507 459.5L504.5 460.5L499.5 463C496 455.5 489 451.5 480 452.5C475.5 458.5 476.5 469.5 484 472.5C480.5 476 478 478 475.5 480C471 476.5 461 472.5 454 475C452.5 482.5 457 492 464.5 494.5L459.5 504C451 502.5 442 505.5 438 510C441 516.5 447.5 522 453.5 522.5C452.5 528.5 452 534 451.5 536C445 535.5 435.5 539.5 433.5 545C436 550 438 552.5 451 553.5V561C452.5 564.543 452 566 448.5 568C434.5 565.2 423.938 552.167 420.408 546C420.404 549.254 420.501 552.587 420.71 556C423.474 561 432 571.5 442 573.5L434.5 580C432.833 580.667 427.644 579.3 422.221 570.5C423.023 575.983 424.105 581.65 425.5 587.5L422 590L417.5 594C408.186 581.138 400.643 565.915 394.52 549.423C395.301 553.396 395.428 558.072 394.5 563.5C416 576 410.5 603.5 390 612.5L385.5 604.5C405.5 600.5 407.5 574 382.5 567.5C388.667 560.833 395.2 544.9 372 534.5C391 520 367.5 493.171 352 511L350.5 505.5L354 503.5C380.5 487 387.806 521 382.5 532C385.158 533.238 388.932 536.267 391.665 541.341C385.468 522.906 380.901 503.165 377.507 483.541C369.464 492.589 360.103 499.56 350.5 503.5L349 496.5C367 491.5 386 464.5 388.5 450H397C392.876 462.129 386.399 473.198 378.596 482.295L382.5 478C383.919 486.845 385.697 495.57 387.806 504.155C397 499 419.5 472 420.5 450H428.5C424 464.5 418.5 489 390.246 513.5C397.791 540.756 408.664 566.486 422 590C400.5 523 424.5 480.5 450.5 450H461C445.385 463.746 420.473 495.233 420.408 546C422 539 432.5 530 436.5 528C433 525 426.5 513 426.5 507.5C430.5 499.5 442.5 495 448 494C444.5 488.5 442.833 472.167 445 468.5C451.5 464.5 460 465.5 466.5 466.5C465.5 463.5 466.363 453.5 468 450H475H495H506H511V458V466.5C467.5 494.5 458 534.5 463.5 554.5Z" fill="#E3E33F"/>
<path d="M357.5 465C376 489 360.8 491 348 491C347.512 491 346.36 486.627 345.561 469.353C345.487 468.846 345.472 468.386 345.5 468V459V450H355H361C360 454.5 353.5 464.5 345.5 468C345.52 468.46 345.54 468.911 345.561 469.353C345.934 471.914 347.824 475.665 353.5 477C343.5 464 360.6 453.6 371 460C372.667 459.167 373.3 456 362.5 450H381.5C384 460.5 385 473.942 370 464.5C373 470.5 377.762 485 357.5 465Z" fill="#E3E33F"/>
<path d="M511 458C485 468.5 445.5 492.5 452 565L463.5 554.5C458 534.5 467.5 494.5 511 466.5V458ZM511 458V450H468M422 590L425.5 587.5C424.105 581.65 423.023 575.983 422.221 570.5M422 590C400.5 523 424.5 480.5 450.5 450H461C445.385 463.746 420.473 495.233 420.408 546M422 590L417.5 594C396.5 565 384.5 524 377.5 483.5L382.5 478C383.919 486.845 385.697 495.57 387.806 504.155M422 590C408.664 566.486 397.791 540.756 390.246 513.5M390.246 513.5C418.5 489 424 464.5 428.5 450H420.5C419.5 472 397 499 387.806 504.155M390.246 513.5C389.389 510.404 388.575 507.289 387.806 504.155M390.246 513.5L387.806 504.155M345.5 468C345.333 470.333 346.7 475.4 353.5 477C343.5 464 360.6 453.6 371 460C372.667 459.167 373.3 456 362.5 450H381.5C384 460.5 385 473.942 370 464.5C373 470.5 377.762 485 357.5 465C376 489 360.8 491 348 491C347.5 491 346.3 486.4 345.5 468ZM345.5 468C353.5 464.5 360 454.5 361 450H355M345.5 468V459M345.5 459C351.5 458.5 354.333 453 355 450M345.5 459V450H355M345.5 459C348.333 459 354 456 355 450M422.221 570.5C427.644 579.3 432.833 580.667 434.5 580L442 573.5C432 571.5 423.474 561 420.71 556M422.221 570.5C421.493 565.516 420.997 560.683 420.71 556M420.71 556C420.501 552.587 420.404 549.254 420.408 546M420.408 546C423.938 552.167 434.5 565.2 448.5 568C452 566 452.5 564.543 451 561M420.408 546C422 539 432.5 530 436.5 528C433 525 426.5 513 426.5 507.5C430.5 499.5 442.5 495 448 494C444.5 488.5 442.833 472.167 445 468.5C451.5 464.5 460 465.5 466.5 466.5C465.5 463.5 466.363 453.5 468 450M468 450C468.234 449.5 467.882 450.15 468 450ZM468 450H475M504.5 460.5C502.1 453.7 497.333 450 495 450M504.5 460.5L507 459.5C507.833 458.667 507.5 451 506 450H495M504.5 460.5L499.5 463C496 455.5 489 451.5 480 452.5C475.5 458.5 476.5 469.5 484 472.5C480.5 476 478 478 475.5 480C471 476.5 461 472.5 454 475C452.5 482.5 457 492 464.5 494.5L459.5 504C451 502.5 442 505.5 438 510C441 516.5 447.5 522 453.5 522.5C452.5 528.5 452 534 451.5 536C445 535.5 435.5 539.5 433.5 545C436 550 438 552.5 451 553.5C451 555.5 451 558.5 451 561M495 450H475M475 450C470 457.5 469.5 465 475 472.5C464.5 469 454 469 449.5 472C447 482 451.667 491.167 457.5 498C443.5 498 436 503 431.5 508.5C432 517.5 443.333 526.5 448.5 528.5C435.5 532 428 540 426 545C428.5 553.5 445.5 560.5 451 561M350.5 503.5C370 495.5 388.5 475 397 450H388.5C386 464.5 367 491.5 349 496.5L350.5 503.5ZM390 612.5C410.5 603.5 416 576 394.5 563.5C397.782 544.3 387.868 534.5 382.5 532C387.806 521 380.5 487 354 503.5L350.5 505.5L352 511C367.5 493.171 391 520 372 534.5C395.2 544.9 388.667 560.833 382.5 567.5C407.5 574 405.5 600.5 385.5 604.5L390 612.5Z" stroke="#020715" stroke-width="2"/>
<path d="M382.5 567C409.5 577 403.5 600 386 604.5C379.822 592.365 374.959 581.788 371.077 572.5C365.572 559.329 362.041 548.751 359.533 540C355.794 526.951 354.332 517.964 352 510.5C371 494.5 389 520 372.5 534.5C383.5 540 395.5 550.5 382.5 567Z" fill="#D01E1E"/>
<path d="M382.5 567C409.5 577 403.5 600 386 604.5C379.822 592.365 374.959 581.788 371.077 572.5M382.5 567L371.077 572.5M382.5 567C395.5 550.5 383.5 540 372.5 534.5M371.077 572.5C365.572 559.329 362.041 548.751 359.533 540M372.5 534.5L359.533 540M372.5 534.5C389 520 371 494.5 352 510.5C354.332 517.964 355.794 526.951 359.533 540" stroke="#020715" stroke-width="2"/>
<ellipse cx="7.08889" cy="2.7451" rx="7.08889" ry="2.7451" transform="matrix(0.0517374 0.998661 -0.999006 0.0445809 253.266 551.597)" fill="#E3E33F" stroke="#020715" stroke-width="2"/>
<ellipse cx="7.08889" cy="2.7451" rx="7.08889" ry="2.7451" transform="matrix(-0.858246 0.513238 -0.507076 -0.861901 253 507.724)" fill="#E3E33F" stroke="#020715" stroke-width="2"/>
<path d="M383.5 483.5L382.5 478C386.5 475 397.167 453.667 397 450H404.5H415C417 451.5 418 453.5 418.5 455.5C414 458.5 407 461 401 460.003C408.2 463.201 411.5 472 411.5 476C407 477.5 395.5 476.5 392 475.17C400 479.834 401.5 487.334 401.5 490.5C394.5 491 386 488.5 383.5 483.5Z" fill="#E3E33F"/>
<path d="M383.5 483.5L382.5 478C386.5 475 397.167 453.667 397 450H415M383.5 483.5C386.791 480.894 389.594 478.101 392 475.17M383.5 483.5C386 488.5 394.5 491 401.5 490.5C401.5 487.334 400 479.834 392 475.17M404.5 450C403.522 453.353 402.388 456.705 401 460.003M420 450H415M415 450C417 451.5 418 453.5 418.5 455.5C414 458.5 407 461 401 460.003M401 460.003C408.2 463.201 411.5 472 411.5 476C407 477.5 395.5 476.5 392 475.17M401 460.003C398.782 465.272 395.916 470.402 392 475.17" stroke="#020715" stroke-width="2"/>
<path d="M203 542.5C209 544.5 210 544 217.5 543.5L220.5 538C197 503.5 200.5 478 207.5 450C202 449.834 190.5 450 188.5 450C192.167 453.167 198.5 457.5 203.5 461C197.5 462.5 191.5 462.5 186 467.5C189.5 472.5 198.4 476.5 202 476.5C196.5 478.5 188.5 481 185 486.5C188.5 490.5 197.3 493.9 202.5 493.5C197.333 496.5 189 501.5 187.5 507C190.5 510 198.7 510.7 205.5 509.5C201.5 512 194.5 518 193 524C197 527 206.5 527 211 525C207.333 528.5 203 534 203 542.5Z" fill="#E3E33F" stroke="#020715" stroke-width="2"/>
<path d="M242 502L232.5 518C226 519 221.5 516 224.5 511.5C218.5 512 209.5 501 222 496.5C217.584 492.526 219.018 487.771 227.68 487.059C219.362 486.645 212.121 482.774 219.5 478C209.5 470.5 216.5 465 222 463.5C221.5 452.5 228.5 452.5 236.5 460.5C238.5 459.3 237.667 456.333 237 455C234.2 456.2 221 453 226.5 450H242.5C247.5 452 245.833 458.333 243.5 460C243 465.5 239.5 472 227 471.5C240.2 473.5 240.5 480 242 484C242.5 495.5 237.5 497.5 228.5 504C233 503.5 240 501.5 242 502Z" fill="#E3E33F"/>
<path d="M242 502L232.5 518C226 519 221.5 516 224.5 511.5C218.5 512 209.5 501 222 496.5C217 492 219.5 486.5 231.5 487C221.9 487.8 211 483.5 219.5 478C209.5 470.5 216.5 465 222 463.5C221.5 452.5 228.5 452.5 236.5 460.5C238.5 459.3 237.667 456.333 237 455C234.2 456.2 221 453 226.5 450H242.5C247.5 452 245.833 458.333 243.5 460C243 465.5 239.5 472 227 471.5C240.2 473.5 240.5 480 242 484C242.5 495.5 237.5 497.5 228.5 504C233 503.5 240 501.5 242 502Z" stroke="#020715" stroke-width="2"/>
<path d="M338.5 785.66C338.5 783.66 333 782.16 324.5 766.66C315.3 767.46 309 766.993 307 766.66C306.2 780.66 310.5 783.66 310.5 785.66" stroke="white" stroke-width="2"/>
<path d="M293.5 785.8C293.5 783.8 292 779.64 288 766.3C279 765.14 267 765.3 255 763.8C254.2 777.8 252 783.8 252 785.8" stroke="white" stroke-width="2"/>
<path d="M236.5 785.8C236.5 781.5 235 779.5 237 762C226.5 761.5 213.5 758 205 753C193.5 773 180 784 180 786" stroke="white" stroke-width="2"/>
<path d="M348.5 731C354.333 737.5 362.5 751.7 350.5 760.5C304.5 764 214.72 758.5 203.5 741.5C187 716.5 227 689.5 210.5 646C213 647 216.5 650.3 218.5 655.5C218.5 653 220.5 654 216 646.5C219 647 225.1 650.8 229.5 672C230.333 671 232.3 664.5 225.5 650.5C229.5 651.5 236 657.2 236 674C237.167 673.833 239.7 666.7 236.5 655.5C243 660 250.2 684.7 245 715.5C248.5 727 267.5 726 271.5 719.5C280.667 718 296.4 708.4 286 682C290.5 687 302 703.3 304 716.5C322 720 325 730 326.5 744C327.333 742.833 332 737.5 327.5 720C332.435 726.666 339.145 738.3 338.5 747.5C340.667 747 343.5 742.5 338 731.5C341.667 731.666 349 734.2 349 751C350 750.333 352.9 745 348.5 731Z" fill="#020715"/>
<path d="M304 716.5C322 720 325 730 326.5 744C327.333 742.833 332 737.5 327.5 720C332.435 726.666 339.145 738.3 338.5 747.5C340.667 747 343.5 742.5 338 731.5C341.667 731.666 349 734.2 349 751C350 750.333 352.9 745 348.5 731C354.333 737.5 362.5 751.7 350.5 760.5C304.5 764 214.72 758.5 203.5 741.5C187 716.5 227 689.5 210.5 646C213 647 216.5 650.3 218.5 655.5C218.5 653 220.5 654 216 646.5C219 647 225.1 650.8 229.5 672C230.333 671 232.3 664.5 225.5 650.5C229.5 651.5 236 657.2 236 674C237.167 673.833 239.7 666.7 236.5 655.5C243 660 250.2 684.7 245 715.5C248.5 727 267.5 726 271.5 719.5C280.667 718 296.4 708.4 286 682C290.5 687 302 703.3 304 716.5ZM304 716.5C316 724.5 322 731 323.5 739.5" stroke="#020715" stroke-width="2"/>
<path d="M511 788V789H512V788H511ZM98 788H97V789H98V788ZM511 787H98V789H511V787ZM99 788V450H97V788H99ZM510 450V788H512V450H510Z" fill="black" mask="url(#path-208-inside-2_131_24820)"/>
</g>
</g>
<defs>
<clipPath id="clip0_131_24820">
<rect width="600" height="900" fill="white"/>
</clipPath>
<clipPath id="clip1_131_24820">
<rect width="600" height="900" fill="white"/>
</clipPath>
</defs>
</svg>
