<svg width="600" height="900" viewBox="0 0 600 900" fill="none" xmlns="http://www.w3.org/2000/svg">
<g clip-path="url(#clip0_111_37)">
<rect x="0.5" y="0.5" width="599" height="899" rx="69.5" fill="white" stroke="black"/>
<g clip-path="url(#clip1_111_37)">
<path d="M0 70C0 31.3401 31.3401 0 70 0H530C568.66 0 600 31.3401 600 70V450H0V70Z" fill="white"/>
<path d="M66.144 62.456V96.872C66.144 102.2 64.632 106.304 61.608 109.184C58.632 112.064 54.6 113.504 49.512 113.504C44.184 113.504 39.912 111.992 36.696 108.968C33.48 105.944 31.872 101.648 31.872 96.08H44.112C44.112 98.192 44.544 99.8 45.408 100.904C46.272 101.96 47.52 102.488 49.152 102.488C50.64 102.488 51.792 102.008 52.608 101.048C53.424 100.088 53.832 98.696 53.832 96.872V62.456H66.144Z" fill="#020715"/>
<path d="M80.1005 163.223C80.1012 166.489 78.9551 169.652 76.8621 172.159C74.7691 174.666 71.8622 176.359 68.6487 176.941C65.4352 177.524 62.1191 176.959 59.2792 175.347C56.4393 173.734 54.2559 171.175 53.1101 168.117C53.0994 177.288 53.6879 183.391 62.3911 188H38.6954C47.3987 183.392 47.9871 177.291 47.9765 168.117C47.0189 170.667 45.3349 172.88 43.1328 174.483C40.9307 176.086 38.3069 177.009 35.5861 177.136C32.8653 177.264 30.1667 176.591 27.8241 175.202C25.4815 173.812 23.5976 171.766 22.4055 169.317C21.2133 166.868 20.7651 164.123 21.1163 161.422C21.4676 158.721 22.6028 156.182 24.3817 154.119C26.1606 152.057 28.505 150.561 31.1251 149.816C33.7453 149.072 36.5261 149.112 39.1238 149.931C37.6617 147.842 36.8005 145.392 36.6341 142.848C36.4676 140.304 37.0023 137.763 38.1797 135.501C39.3572 133.24 41.1325 131.345 43.3123 130.022C45.4921 128.699 47.9929 128 50.5426 128C53.0923 128 55.5931 128.699 57.7729 130.022C59.9527 131.345 61.728 133.24 62.9055 135.501C64.0829 137.763 64.6176 140.304 64.4511 142.848C64.2847 145.392 63.4235 147.842 61.9614 149.931C64.0499 149.272 66.2641 149.115 68.4248 149.471C70.5855 149.828 72.6318 150.688 74.3982 151.982C76.1646 153.277 77.6013 154.969 78.5919 156.922C79.5826 158.875 80.0994 161.034 80.1005 163.223Z" fill="#020715"/>
<path d="M424.5 343V449.5H195.5V343C195.5 279.763 246.763 228.5 310 228.5C373.237 228.5 424.5 279.763 424.5 343Z" fill="#871515" stroke="black"/>
<circle cx="310" cy="158" r="69.5" fill="#FFF7D9" stroke="black"/>
<rect x="158.5" y="128.5" width="81" height="233" rx="14.5" fill="white" stroke="black"/>
<path d="M319 197C311 197 307 185 295 185C283 185 283 193 283 193C283 193 283 185 271 185C259 185 255 197 247 197C243 197 239 193 239 193C239 193 243 213 259 213C279 213 283 201 283 201C283 201 287 213 307 213C323 213 327 193 327 193C327 193 323 197 319 197Z" fill="black"/>
<path d="M424.5 282V327C424.5 355.276 401.712 378.229 373.5 378.498V282C373.5 267.917 384.917 256.5 399 256.5C413.083 256.5 424.5 267.917 424.5 282Z" fill="#2472A9" stroke="black"/>
<path d="M284.5 370V368C284.5 354.469 295.469 343.5 309 343.5H381C395.083 343.5 406.5 354.917 406.5 369C406.5 383.083 395.083 394.5 381 394.5H309C295.469 394.5 284.5 383.531 284.5 370Z" fill="#2472A9" stroke="black"/>
<path d="M299.38 350.072C302.158 358.796 302.081 367.499 299.734 374.51C297.386 381.521 292.785 386.806 286.527 388.799C280.27 390.792 273.459 389.143 267.489 384.78C261.519 380.419 256.422 373.364 253.644 364.64C250.865 355.916 250.942 347.213 253.289 340.201C255.637 333.19 260.239 327.905 266.496 325.912C272.754 323.919 279.564 325.569 285.534 329.931C291.504 334.293 296.601 341.348 299.38 350.072Z" fill="white" stroke="black"/>
<line x1="251.816" y1="356.535" x2="294.816" y2="339.535" stroke="black"/>
<line x1="264.455" y1="326.793" x2="274.455" y2="348.793" stroke="black"/>
<circle cx="161" cy="311" r="26.5" fill="#FFF7D9" stroke="black"/>
<path d="M353.315 -7.98838e-05L324.768 109.882L289.329 82.3431L353.315 -7.98838e-05Z" fill="#FFFF00"/>
<path d="M400.978 37.0373L354.711 133.15L319.272 105.611L400.978 37.0373Z" fill="#FFFF00"/>
<path d="M447.643 73.2991L383.656 155.642L348.217 128.103L447.643 73.2991Z" fill="#FFFF00"/>
<rect x="301.604" y="67.0691" width="118.818" height="37.4779" transform="rotate(37.8498 301.604 67.0691)" fill="#FFFF00"/>
</g>
<g clip-path="url(#clip2_111_37)">
<path d="M600 830C600 868.66 568.66 900 530 900H70C31.3401 900 0 868.66 0 830V450H600V830Z" fill="white"/>
<path d="M533.856 837.544V803.128C533.856 797.8 535.368 793.696 538.392 790.816C541.368 787.936 545.4 786.496 550.488 786.496C555.816 786.496 560.088 788.008 563.304 791.032C566.52 794.056 568.128 798.352 568.128 803.92H555.888C555.888 801.808 555.456 800.2 554.592 799.096C553.728 798.04 552.48 797.512 550.848 797.512C549.36 797.512 548.208 797.992 547.392 798.952C546.576 799.912 546.168 801.304 546.168 803.128V837.544H533.856Z" fill="#020715"/>
<path d="M519.9 736.777C519.899 733.511 521.045 730.348 523.138 727.841C525.231 725.334 528.138 723.641 531.351 723.059C534.565 722.476 537.881 723.041 540.721 724.653C543.561 726.266 545.744 728.825 546.89 731.883C546.901 722.712 546.312 716.609 537.609 712H561.305C552.601 716.608 552.013 722.709 552.024 731.883C552.981 729.333 554.665 727.12 556.867 725.517C559.069 723.914 561.693 722.991 564.414 722.864C567.135 722.736 569.833 723.409 572.176 724.798C574.518 726.188 576.402 728.234 577.595 730.683C578.787 733.132 579.235 735.877 578.884 738.578C578.532 741.279 577.397 743.818 575.618 745.881C573.839 747.943 571.495 749.439 568.875 750.184C566.255 750.928 563.474 750.888 560.876 750.069C562.338 752.158 563.199 754.608 563.366 757.152C563.532 759.696 562.998 762.237 561.82 764.499C560.643 766.76 558.868 768.655 556.688 769.978C554.508 771.301 552.007 772 549.457 772C546.908 772 544.407 771.301 542.227 769.978C540.047 768.655 538.272 766.76 537.095 764.499C535.917 762.237 535.382 759.696 535.549 757.152C535.715 754.608 536.576 752.158 538.039 750.069C535.95 750.728 533.736 750.885 531.575 750.529C529.415 750.172 527.368 749.312 525.602 748.018C523.835 746.723 522.399 745.031 521.408 743.078C520.417 741.125 519.901 738.966 519.9 736.777Z" fill="#020715"/>
<path d="M175.5 557V450.5H404.5V557C404.5 620.237 353.237 671.5 290 671.5C226.763 671.5 175.5 620.237 175.5 557Z" fill="#871515" stroke="black"/>
<circle cx="290" cy="742" r="69.5" transform="rotate(180 290 742)" fill="#FFF7D9" stroke="black"/>
<rect x="441.5" y="771.5" width="81" height="233" rx="14.5" transform="rotate(180 441.5 771.5)" fill="white" stroke="black"/>
<path d="M281 703C289 703 293 715 305 715C317 715 317 707 317 707C317 707 317 715 329 715C341 715 345 703 353 703C357 703 361 707 361 707C361 707 357 687 341 687C321 687 317 699 317 699C317 699 313 687 293 687C277 687 273 707 273 707C273 707 277 703 281 703Z" fill="black"/>
<path d="M175.5 618V573C175.5 544.724 198.288 521.771 226.5 521.502V618C226.5 632.083 215.083 643.5 201 643.5C186.917 643.5 175.5 632.083 175.5 618Z" fill="#2472A9" stroke="black"/>
<path d="M315.5 530V532C315.5 545.531 304.531 556.5 291 556.5H219C204.917 556.5 193.5 545.083 193.5 531C193.5 516.917 204.917 505.5 219 505.5H291C304.531 505.5 315.5 516.469 315.5 530Z" fill="#2472A9" stroke="black"/>
<path d="M300.62 549.928C297.842 541.204 297.919 532.501 300.266 525.49C302.614 518.479 307.215 513.194 313.473 511.201C319.73 509.208 326.541 510.857 332.511 515.22C338.481 519.581 343.578 526.636 346.356 535.36C349.135 544.084 349.058 552.787 346.711 559.799C344.363 566.81 339.761 572.095 333.504 574.088C327.246 576.081 320.436 574.431 314.466 570.069C308.496 565.707 303.399 558.652 300.62 549.928Z" fill="white" stroke="black"/>
<line x1="348.184" y1="543.465" x2="305.184" y2="560.465" stroke="black"/>
<line x1="335.545" y1="573.207" x2="325.545" y2="551.207" stroke="black"/>
<circle cx="439" cy="589" r="26.5" transform="rotate(180 439 589)" fill="#FFF7D9" stroke="black"/>
<path d="M246.685 900L275.232 790.118L310.671 817.657L246.685 900Z" fill="#FFFF00"/>
<path d="M199.022 862.963L245.289 766.85L280.728 794.389L199.022 862.963Z" fill="#FFFF00"/>
<path d="M152.357 826.701L216.344 744.358L251.783 771.897L152.357 826.701Z" fill="#FFFF00"/>
<rect x="298.396" y="832.931" width="118.818" height="37.4779" transform="rotate(-142.15 298.396 832.931)" fill="#FFFF00"/>
</g>
</g>
<rect x="0.5" y="0.5" width="599" height="899" rx="69.5" stroke="black"/>
<defs>
<clipPath id="clip0_111_37">
<rect width="600" height="900" rx="70" fill="white"/>
</clipPath>
<clipPath id="clip1_111_37">
<rect width="600" height="450" fill="white"/>
</clipPath>
<clipPath id="clip2_111_37">
<rect width="600" height="450" fill="white" transform="matrix(-1 0 0 -1 600 900)"/>
</clipPath>
</defs>
</svg>
